<svg xmlns="http://www.w3.org/2000/svg" xml:space="preserve" viewBox="0 0 1000 291.38">
  <path fill="#FF004F" d="M191.1 105.18a114.44 114.44 0 0 0 66.76 21.35V78.66a67.6 67.6 0 0 1-14.02-1.47v37.69c-24.9 0-47.94-7.91-66.76-21.35v97.7c0 48.88-39.64 88.5-88.54 88.5a88.15 88.15 0 0 1-49.29-14.97 88.3 88.3 0 0 0 63.3 26.62c48.91 0 88.55-39.62 88.55-88.5v-97.7zm17.3-48.3a66.71 66.71 0 0 1-17.3-39.07v-6.15h-13.28a67.03 67.03 0 0 0 30.58 45.22zM70.18 227.25a40.5 40.5 0 0 1 44.53-63.09v-48.95c-4.65-.63-9.33-.9-14.02-.8v38.1a40.56 40.56 0 0 0-52.79 38.58c0 15.8 9.06 29.5 22.28 36.16z"/>
  <path d="M177.08 93.53a114.46 114.46 0 0 0 66.76 21.35v-37.7a67.01 67.01 0 0 1-35.44-20.3 67.03 67.03 0 0 1-30.58-45.23h-34.9v191.23a40.5 40.5 0 0 1-72.74 24.37 40.48 40.48 0 0 1 18.22-76.64c4.29 0 8.42.67 12.3 1.9v-38.1c-48.05.99-86.68 40.22-86.68 88.47a88.17 88.17 0 0 0 25.23 61.88 88.15 88.15 0 0 0 49.3 14.97c48.9 0 88.53-39.63 88.53-88.5v-97.7z"/>
  <path fill="#00F2EA" d="M243.84 77.19v-10.2a66.77 66.77 0 0 1-35.44-10.11 66.95 66.95 0 0 0 35.44 20.3zm-66.02-65.53a68.28 68.28 0 0 1-.74-5.5V0H128.9v191.23a40.5 40.5 0 0 1-58.72 36.02 40.5 40.5 0 0 0 72.74-24.37V11.66h34.9zM100.69 114.4v-10.85a89.43 89.43 0 0 0-12.14-.82C39.65 102.74 0 142.36 0 191.23a88.4 88.4 0 0 0 39.26 73.53 88.17 88.17 0 0 1-25.24-61.88c0-48.25 38.63-87.48 86.67-88.47z"/>
  <path fill="#FF004F" d="M802.13 239.66c34.98 0 63.35-28.14 63.35-62.84s-28.36-62.85-63.35-62.85h-9.55c35 0 63.36 28.14 63.36 62.85s-28.37 62.84-63.36 62.84h9.55z"/>
  <path fill="#00F2EA" d="M791.72 113.97h-9.55c-34.99 0-63.36 28.14-63.36 62.85s28.37 62.84 63.36 62.84h9.55c-35 0-63.36-28.14-63.36-62.84s28.36-62.84 63.36-62.84z"/>
  <path d="M310.06 85.57v31.86h37.31V238.8h37.33V118.28h30.37l10.42-32.7H310.06zm305.48 0v31.86h37.32V238.8h37.32V118.28h30.37l10.42-32.7H615.54zm-183.1 18.08c0-9.98 8.14-18.08 18.2-18.08 10.08 0 18.23 8.1 18.23 18.08 0 9.98-8.15 18.07-18.23 18.07a18.14 18.14 0 0 1-18.2-18.07zm0 31h36.43V238.8h-36.44V134.64zm52.06-49.08V238.8h36.45v-39.6l11.28-10.33 35.58 50.79h39.05l-51.2-74.03 45.99-44.77h-44.26l-36.44 36.15V85.57H484.5zm393.12 0V238.8h36.46v-39.6l11.28-10.33 35.59 50.79H1000l-51.2-74.03 45.99-44.77h-44.26l-36.45 36.15V85.57h-36.46zM792.58 239.66c34.99 0 63.36-28.14 63.36-62.84s-28.37-62.85-63.36-62.85h-.87c-34.99 0-63.35 28.14-63.35 62.85s28.36 62.84 63.35 62.84h.87zm-31.24-62.84c0-16.88 13.8-30.56 30.81-30.56 17 0 30.8 13.68 30.8 30.56s-13.8 30.56-30.8 30.56c-17.01 0-30.81-13.68-30.81-30.56z"/>
</svg>
