<?xml version="1.0" encoding="UTF-8"?>
<svg width="181px" height="30px" viewBox="0 0 181 30" version="1.1" xmlns="http://www.w3.org/2000/svg" xmlns:xlink="http://www.w3.org/1999/xlink">
    <!-- Generator: Sketch 62 (91390) - https://sketch.com -->
    <title>Group 18</title>
    <desc>Created with Sketch.</desc>
    <defs>
        <polygon id="path-1" points="0 0.0102380952 51.4285238 0.0102380952 51.4285238 29.8809524 0 29.8809524"></polygon>
        <polygon id="path-3" points="0 29.9897619 180.257262 29.9897619 180.257262 0.119047619 0 0.119047619"></polygon>
    </defs>
    <g id="Tabs" stroke="none" stroke-width="1" fill="none" fill-rule="evenodd">
        <g id="Group-18">
            <g id="Group-3" transform="translate(0.000000, 0.108810)">
                <mask id="mask-2" fill="white">
                    <use xlink:href="#path-1"></use>
                </mask>
                <g id="Clip-2"></g>
                <path d="M37.9578095,17.2795952 C37.8911429,19.9259048 35.7237619,22.0510238 33.0611429,22.0510238 C32.7836429,22.0510238 32.5115,22.0279286 32.2475714,21.9844762 C31.4068571,21.8428095 30.6393571,21.489119 30.001381,20.9774524 C28.881619,20.0797143 28.1632857,18.7000714 28.1632857,17.1531667 C28.1632857,15.6061429 28.881619,14.2265 30.001381,13.3286429 C30.6393571,12.8170952 31.4068571,12.4632857 32.2475714,12.3217381 C32.5115,12.2782857 32.7836429,12.2550714 33.0611429,12.2550714 C35.7237619,12.2550714 37.8911429,14.3803095 37.9578095,17.0265 C37.9592381,17.0687619 37.9592381,17.1109048 37.9592381,17.1531667 C37.9592381,17.1951905 37.9592381,17.2374524 37.9578095,17.2795952 M21.4272143,20.9774524 C20.789119,21.489119 20.0217381,21.8428095 19.1809048,21.9844762 C18.9170952,22.0279286 18.6448333,22.0510238 18.3673333,22.0510238 C15.7047143,22.0510238 13.5373333,19.9259048 13.4707857,17.2795952 C13.4693571,17.2374524 13.4693571,17.1951905 13.4693571,17.1531667 C13.4693571,17.1109048 13.4693571,17.0687619 13.4707857,17.0265 C13.5373333,14.3803095 15.7047143,12.2550714 18.3673333,12.2550714 C18.6448333,12.2550714 18.9170952,12.2782857 19.1809048,12.3217381 C20.0217381,12.4632857 20.789119,12.8170952 21.4272143,13.3286429 C22.5469762,14.2265 23.2653095,15.6061429 23.2653095,17.1531667 C23.2653095,18.7000714 22.5469762,20.0797143 21.4272143,20.9774524 M48.9795952,0.0101904762 C47.6272143,0.0101904762 46.5306667,1.1067381 46.5306667,2.4592381 C46.5306667,2.61019048 46.5237619,2.75983333 46.5101905,2.90816667 C46.3469762,4.71090476 45.2054286,6.23197619 43.6217381,6.9367381 C43.0136429,7.20745238 42.3401905,7.35709524 41.6325714,7.35709524 L33.1469762,7.35709524 C33.1482857,7.35709524 33.1482857,7.35709524 33.1482857,7.35852381 C33.1197143,7.35709524 33.0897143,7.35709524 33.0611429,7.35709524 C31.9156667,7.35709524 30.816381,7.55447619 29.7945952,7.91638095 C28.9931667,8.19935714 28.2407857,8.58304762 27.5510238,9.0537619 C26.8720952,9.51638095 26.2543571,10.0619762 25.7142381,10.6755476 C25.174119,10.0619762 24.5565,9.51638095 23.8775714,9.0537619 C23.1878095,8.58304762 22.4353095,8.19935714 21.634,7.91638095 C20.6122143,7.55447619 19.5129286,7.35709524 18.3673333,7.35709524 C18.3387619,7.35709524 18.3087619,7.35709524 18.2803095,7.35852381 C18.2803095,7.35709524 18.2803095,7.35709524 18.281619,7.35709524 L9.79590476,7.35709524 C9.08840476,7.35709524 8.41495238,7.20745238 7.8067381,6.9367381 C6.22316667,6.23197619 5.08161905,4.71090476 4.91840476,2.90816667 C4.90471429,2.75983333 4.89792857,2.61019048 4.89792857,2.4592381 C4.89792857,1.1067381 3.80138095,0.0101904762 2.449,0.0101904762 C1.09661905,0.0101904762 -4.76190476e-05,1.1067381 -4.76190476e-05,2.4592381 C-4.76190476e-05,4.24280952 0.477571429,5.9162619 1.31019048,7.35709524 C1.32519048,7.38161905 1.34007143,7.40745238 1.35507143,7.43197619 C2.2367381,8.92447619 3.50197619,10.164 5.0162619,11.011619 C5.7237619,11.408881 6.48709524,11.719119 7.28983333,11.9299524 C7.864,12.0823333 8.45852381,12.1829286 9.06804762,12.2279286 C9.30888095,12.2455476 9.55102381,12.2550714 9.79590476,12.2550714 C9.82447619,12.2550714 9.85447619,12.2550714 9.88304762,12.2537619 C9.88304762,12.2550714 9.88304762,12.2550714 9.88161905,12.2550714 C9.07483333,13.6511429 8.6012619,15.2645952 8.57280952,16.9856667 C8.57138095,17.0415 8.57138095,17.0973333 8.57138095,17.1531667 C8.57138095,21.716381 11.6924524,25.5504286 15.9156667,26.6387619 C16.6993571,26.8415 17.5210238,26.949 18.3673333,26.949 C19.5129286,26.949 20.6122143,26.751619 21.634,26.3897143 C22.1876905,27.0755476 22.8026905,27.7109048 23.4707857,28.286381 C24.1645952,28.8849524 24.9155476,29.4198333 25.7142381,29.8810238 C26.5129286,29.4198333 27.264,28.8849524 27.9578095,28.286381 C28.6257857,27.7109048 29.2407857,27.0755476 29.7945952,26.3897143 C30.816381,26.751619 31.9156667,26.949 33.0611429,26.949 C33.9075714,26.949 34.7292381,26.8415 35.5129286,26.6387619 C39.7361429,25.5504286 42.8570952,21.716381 42.8570952,17.1531667 C42.8570952,17.0973333 42.8570952,17.0415 42.8557857,16.9856667 C42.8272143,15.2645952 42.3537619,13.6511429 41.5468571,12.2550714 C41.5455476,12.2550714 41.5455476,12.2550714 41.5455476,12.2537619 C41.574119,12.2550714 41.604119,12.2550714 41.6325714,12.2550714 C41.8775714,12.2550714 42.1197143,12.2455476 42.3604286,12.2279286 C42.9700714,12.1829286 43.5645952,12.0823333 44.1387619,11.9299524 C44.9415,11.719119 45.7047143,11.408881 46.4123333,11.011619 C47.9265,10.164 49.1918571,8.92447619 50.0734048,7.43197619 C50.0884048,7.40745238 50.1032857,7.38161905 50.1182857,7.35709524 C50.9510238,5.9162619 51.4285238,4.24280952 51.4285238,2.4592381 C51.4285238,1.1067381 50.3318571,0.0101904762 48.9795952,0.0101904762" id="Fill-1" fill="#FF6C37" mask="url(#mask-2)"></path>
            </g>
            <path d="M68.0308214,19.0175119 L65.0515357,11.3219167 L62.07225,19.0175119 L68.0308214,19.0175119 Z M69.6327262,23.1497738 L60.4852262,23.1497738 L59.0326071,26.89275 L54.0020119,26.89275 L63.6439167,3.89596429 L66.4887976,3.89596429 L76.0857024,26.89275 L71.084869,26.89275 L69.6327262,23.1497738 Z" id="Fill-4" fill="#121343"></path>
            <polygon id="Fill-6" fill="#121343" points="78.4143571 16.2475714 75.6443571 16.2475714 75.6443571 12.4748333 78.4143571 12.4748333 78.4143571 7.26447619 83.0104286 7.26447619 83.0104286 12.4748333 85.7655476 12.4748333 85.7655476 16.2475714 83.0104286 16.2475714 83.0104286 26.8928095 78.4143571 26.8928095"></polygon>
            <path d="M88.061869,3.89591667 L92.6579405,3.89591667 L92.6579405,14.0169881 C93.8557976,12.8790119 95.2930595,12.1752024 96.9852024,12.1752024 C101.057583,12.1752024 102.719012,14.5109167 102.719012,19.0772262 L102.719012,26.8928214 L98.1229405,26.8928214 L98.1229405,19.0772262 C98.1229405,17.1160357 97.5688929,16.0380595 95.8471071,16.0380595 C94.0357976,16.0380595 92.6579405,17.6999643 92.6579405,19.6915119 L92.6579405,26.8928214 L88.061869,26.8928214 L88.061869,3.89591667 Z" id="Fill-8" fill="#121343"></path>
            <path d="M109.609833,17.7897262 L115.254357,17.7897262 C114.999833,16.5172262 113.802095,15.6638929 112.484357,15.6638929 C110.987095,15.6638929 110.044119,16.4124643 109.609833,17.7897262 M116.017571,21.5329405 L119.101976,23.8536548 C117.664714,25.9494881 115.404119,27.1923452 112.858762,27.1923452 C108.247452,27.1923452 104.729,24.4671071 104.729,19.6915119 C104.729,15.5440119 108.09769,12.1752024 112.244833,12.1752024 C117.36519,12.1752024 119.745786,15.6638929 119.745786,20.3050833 L109.340429,20.3050833 C109.49019,22.3711548 110.852571,23.2098452 112.858762,23.2098452 C114.086381,23.2098452 115.119357,22.6856786 116.017571,21.5329405" id="Fill-10" fill="#121343"></path>
            <path d="M121.438798,12.4747857 L126.035226,12.4747857 L126.035226,14.0169286 C127.233083,12.8790714 128.670345,12.1752619 130.362012,12.1752619 C134.434393,12.1752619 136.096417,14.5109762 136.096417,19.0772857 L136.096417,26.8927619 L131.500345,26.8927619 L131.500345,19.0772857 C131.500345,17.1159762 130.946179,16.038119 129.224274,16.038119 C127.412607,16.038119 126.035226,17.7000238 126.035226,19.6914524 L126.035226,26.8927619 L121.438798,26.8927619 L121.438798,12.4747857 Z" id="Fill-12" fill="#121343"></path>
            <mask id="mask-4" fill="white">
                <use xlink:href="#path-3"></use>
            </mask>
            <g id="Clip-15"></g>
            <path d="M139.44369,26.8927381 L144.039762,26.8927381 L144.039762,12.4747619 L139.44369,12.4747619 L139.44369,26.8927381 Z M138.799524,7.08488095 C138.799524,5.45297619 140.117143,4.13547619 141.748929,4.13547619 C143.425833,4.13547619 144.71381,5.45297619 144.71381,7.08488095 C144.71381,8.77666667 143.425833,10.0641667 141.748929,10.0641667 C140.117143,10.0641667 138.799524,8.77666667 138.799524,7.08488095 L138.799524,7.08488095 Z" id="Fill-14" fill="#121343" mask="url(#mask-4)"></path>
            <path d="M158.428429,19.6914643 C158.428429,17.6999167 156.841405,16.0980119 154.850095,16.0980119 C152.858905,16.0980119 151.256881,17.6999167 151.256881,19.6914643 C151.256881,21.6827738 152.858905,23.2694405 154.850095,23.2694405 C156.841405,23.2694405 158.428429,21.6827738 158.428429,19.6914643 L158.428429,19.6914643 Z M163.039381,12.4747976 L163.039381,26.8927738 L158.742952,26.8927738 L158.53319,25.4555119 C157.305571,26.533369 155.703667,27.1924167 153.862238,27.1924167 C149.699619,27.1924167 146.720333,23.823369 146.720333,19.6914643 C146.720333,15.5439643 149.699619,12.1752738 153.862238,12.1752738 C155.658548,12.1752738 157.21581,12.7892024 158.428429,13.8222976 L158.428429,12.4747976 L163.039381,12.4747976 Z" id="Fill-16" fill="#121343" mask="url(#mask-4)"></path>
            <path d="M165.600119,12.4747857 L170.19619,12.4747857 L170.19619,14.0169286 C171.394048,12.8790714 172.83131,12.1752619 174.522976,12.1752619 C178.595357,12.1752619 180.257262,14.5109762 180.257262,19.0772857 L180.257262,26.8927619 L175.66131,26.8927619 L175.66131,19.0772857 C175.66131,17.1159762 175.107143,16.038119 173.385357,16.038119 C171.573571,16.038119 170.19619,17.7000238 170.19619,19.6914524 L170.19619,26.8927619 L165.600119,26.8927619 L165.600119,12.4747857 Z" id="Fill-17" fill="#121343" mask="url(#mask-4)"></path>
        </g>
    </g>
</svg>