<svg xmlns="http://www.w3.org/2000/svg" xmlns:xlink="http://www.w3.org/1999/xlink" viewBox="0 0 132 34"><path d="M 17.282 2.565 C 17.972 1.885 18.909 1.502 19.885 1.502 C 20.862 1.502 21.799 1.885 22.489 2.565 L 31.835 11.772 C 32.526 12.452 32.914 13.375 32.914 14.337 C 32.914 15.299 32.526 16.221 31.835 16.902 L 17.158 31.361 C 16.467 32.042 15.53 32.424 14.554 32.424 C 13.577 32.424 12.64 32.042 11.95 31.361 L 2.604 22.154 C 1.913 21.474 1.525 20.551 1.525 19.589 C 1.525 18.627 1.913 17.705 2.604 17.024 L 17.282 2.566 Z" fill="rgb(150,94,193)"></path><path d="M 22.737 16.828 C 22.047 16.147 21.659 15.225 21.659 14.263 C 21.659 13.301 22.047 12.378 22.737 11.698 L 32.007 2.567 C 32.697 1.886 33.634 1.504 34.611 1.504 C 35.587 1.504 36.524 1.886 37.214 2.567 L 51.892 17.026 C 52.582 17.706 52.97 18.629 52.97 19.591 C 52.97 20.553 52.582 21.476 51.892 22.156 L 42.623 31.287 C 41.932 31.967 40.996 32.35 40.019 32.35 C 39.042 32.35 38.106 31.967 37.415 31.287 L 22.738 16.828 Z" fill="rgb(68,156,181)"></path><path d="M 27.246 7.268 L 31.948 11.899 C 33.321 13.252 33.321 15.444 31.948 16.797 L 27.323 21.353 L 22.622 16.721 C 21.249 15.368 21.249 13.176 22.622 11.824 Z M 64.702 25.053 L 67.213 25.053 L 67.213 12.397 L 72.648 25.053 L 75.119 25.053 L 80.574 12.397 L 80.574 25.053 L 83.086 25.053 L 83.086 9.031 L 79.175 9.031 L 73.884 21.828 L 68.613 9.031 L 64.702 9.031 Z M 89.082 25.351 C 90.996 25.351 92.252 24.519 92.829 23.1 C 92.993 24.682 93.961 25.493 96.061 24.945 L 96.081 23.262 C 95.237 23.343 95.073 23.039 95.073 22.167 L 95.073 18.03 C 95.073 15.596 93.446 14.156 90.441 14.156 C 87.476 14.156 85.767 15.616 85.767 18.09 L 88.073 18.09 C 88.073 16.914 88.917 16.204 90.399 16.204 C 91.964 16.204 92.685 16.874 92.664 18.03 L 92.664 18.557 L 90.132 18.841 C 87.023 19.186 85.376 20.342 85.376 22.228 C 85.376 23.83 86.529 25.351 89.082 25.351 Z M 89.597 23.526 C 88.3 23.526 87.785 22.836 87.785 22.147 C 87.785 21.214 88.855 20.767 90.955 20.524 L 92.602 20.362 C 92.499 22.147 91.285 23.526 89.597 23.526 Z M 102.344 25.351 C 105.268 25.351 107.059 24.073 107.059 22.065 C 107.059 17.543 100.121 19.814 100.121 17.421 C 100.121 16.529 100.903 15.9 102.262 15.9 C 103.744 15.9 104.65 16.63 104.712 17.847 L 107.038 17.847 C 106.873 15.576 105.123 14.156 102.447 14.156 C 99.503 14.156 97.712 15.515 97.712 17.523 C 97.712 21.923 104.65 19.611 104.65 22.126 C 104.65 22.958 103.826 23.607 102.427 23.607 C 100.862 23.607 99.812 22.917 99.75 21.721 L 97.403 21.721 C 97.465 23.972 99.338 25.351 102.344 25.351 Z M 114.291 25.351 C 117.523 25.351 119.829 23.019 119.829 19.733 C 119.829 16.468 117.523 14.156 114.291 14.156 C 111.059 14.156 108.753 16.468 108.753 19.733 C 108.753 23.019 111.059 25.351 114.291 25.351 Z M 114.291 23.303 C 112.479 23.303 111.203 21.822 111.203 19.733 C 111.203 17.664 112.479 16.204 114.291 16.204 C 116.102 16.204 117.399 17.664 117.399 19.733 C 117.399 21.822 116.102 23.303 114.291 23.303 Z M 121.72 25.026 L 124.15 25.026 L 124.15 19.753 C 124.15 17.664 125.282 16.204 127.052 16.204 C 128.535 16.204 129.358 17.259 129.358 18.942 L 129.358 25.026 L 131.808 25.026 L 131.808 18.841 C 131.808 15.758 130.49 14.156 127.855 14.156 C 126.105 14.156 124.891 14.967 124.15 16.184 L 124.15 14.48 L 121.72 14.48 Z" fill="rgb(247,248,248)"></path></svg>