<svg width="132" height="34" viewBox="0 0 132 34" fill="none" xmlns="http://www.w3.org/2000/svg">
<path d="M17.2819 2.56495C17.9719 1.88495 18.9089 1.50195 19.8849 1.50195C20.8619 1.50195 21.7989 1.88495 22.4889 2.56495L31.8349 11.772C32.5259 12.452 32.9139 13.375 32.9139 14.337C32.9139 15.299 32.5259 16.221 31.8349 16.902L17.1579 31.361C16.4669 32.042 15.5299 32.424 14.5539 32.424C13.5769 32.424 12.6399 32.042 11.9499 31.361L2.6039 22.154C1.9129 21.474 1.5249 20.551 1.5249 19.589C1.5249 18.627 1.9129 17.705 2.6039 17.024L17.2819 2.56595V2.56495Z" fill="#965EC1"/>
<path d="M22.7372 16.8279C22.0472 16.1469 21.6592 15.2249 21.6592 14.2629C21.6592 13.3009 22.0472 12.3779 22.7372 11.6979L32.0072 2.56691C32.6972 1.88591 33.6342 1.50391 34.6112 1.50391C35.5872 1.50391 36.5242 1.88591 37.2142 2.56691L51.8922 17.0259C52.5822 17.7059 52.9702 18.6289 52.9702 19.5909C52.9702 20.5529 52.5822 21.4759 51.8922 22.1559L42.6232 31.2869C41.9322 31.9669 40.9962 32.3499 40.0192 32.3499C39.0422 32.3499 38.1062 31.9669 37.4152 31.2869L22.7382 16.8279H22.7372Z" fill="#449CB5"/>
<path d="M27.246 7.26758L31.948 11.8986C33.321 13.2516 33.321 15.4436 31.948 16.7966L27.323 21.3526L22.622 16.7206C21.249 15.3676 21.249 13.1756 22.622 11.8236L27.246 7.26758ZM64.702 25.0526H67.213V12.3966L72.648 25.0526H75.119L80.574 12.3966V25.0526H83.086V9.03058H79.175L73.884 21.8276L68.613 9.03058H64.702V25.0526ZM89.082 25.3506C90.996 25.3506 92.252 24.5186 92.829 23.0996C92.993 24.6816 93.961 25.4926 96.061 24.9446L96.081 23.2616C95.237 23.3426 95.073 23.0386 95.073 22.1666V18.0296C95.073 15.5956 93.446 14.1556 90.441 14.1556C87.476 14.1556 85.767 15.6156 85.767 18.0896H88.073C88.073 16.9136 88.917 16.2036 90.399 16.2036C91.964 16.2036 92.685 16.8736 92.664 18.0296V18.5566L90.132 18.8406C87.023 19.1856 85.376 20.3416 85.376 22.2276C85.376 23.8296 86.529 25.3506 89.082 25.3506ZM89.597 23.5256C88.3 23.5256 87.785 22.8356 87.785 22.1466C87.785 21.2136 88.855 20.7666 90.955 20.5236L92.602 20.3616C92.499 22.1466 91.285 23.5256 89.597 23.5256ZM102.344 25.3506C105.268 25.3506 107.059 24.0726 107.059 22.0646C107.059 17.5426 100.121 19.8136 100.121 17.4206C100.121 16.5286 100.903 15.8996 102.262 15.8996C103.744 15.8996 104.65 16.6296 104.712 17.8466H107.038C106.873 15.5756 105.123 14.1556 102.447 14.1556C99.503 14.1556 97.712 15.5146 97.712 17.5226C97.712 21.9226 104.65 19.6106 104.65 22.1256C104.65 22.9576 103.826 23.6066 102.427 23.6066C100.862 23.6066 99.812 22.9166 99.75 21.7206H97.403C97.465 23.9716 99.338 25.3506 102.344 25.3506ZM114.291 25.3506C117.523 25.3506 119.829 23.0186 119.829 19.7326C119.829 16.4676 117.523 14.1556 114.291 14.1556C111.059 14.1556 108.753 16.4676 108.753 19.7326C108.753 23.0186 111.059 25.3506 114.291 25.3506ZM114.291 23.3026C112.479 23.3026 111.203 21.8216 111.203 19.7326C111.203 17.6636 112.479 16.2036 114.291 16.2036C116.102 16.2036 117.399 17.6636 117.399 19.7326C117.399 21.8216 116.102 23.3026 114.291 23.3026ZM121.72 25.0256H124.15V19.7526C124.15 17.6636 125.282 16.2036 127.052 16.2036C128.535 16.2036 129.358 17.2586 129.358 18.9416V25.0256H131.808V18.8406C131.808 15.7576 130.49 14.1556 127.855 14.1556C126.105 14.1556 124.891 14.9666 124.15 16.1836V14.4796H121.72V25.0256Z" fill="#965EC1"/>
</svg>
