<svg xmlns="http://www.w3.org/2000/svg" xmlns:xlink="http://www.w3.org/1999/xlink" version="1.1" id="Layer_1" x="0px" y="0px" style="enable-background:new 0 0 59.6 40;" xml:space="preserve" viewBox="0 4 59.3 24.6"> <style type="text/css"> .st0{fill:#F46C63;} .st1{fill:none;} </style><style class="darkreader darkreader--sync" media="screen"/> <g id="_x33_.-Company-page-TBD_1_"> <g id="Desktop---Company" transform="translate(-883.000000, -2041.000000)"> <g id="Partners" transform="translate(349.000000, 2041.000000)"> <g id="voi_logo_coral" transform="translate(534.000000, 0.000000)"> <path id="voi_black" class="st0" d="M19,12l-7,16.6H7L0,12h5l4.6,11.3L14.3,12H19z M29.7,28.6c-1.7,0-3.3-0.4-4.7-1.1 c-1.3-0.7-2.5-1.8-3.2-3.1c-0.8-1.3-1.2-2.8-1.2-4.5c0-1.7,0.4-3.2,1.2-4.5c0.8-1.3,1.9-2.4,3.2-3.1c1.4-0.7,2.9-1.1,4.7-1.1 c1.7,0,3.3,0.4,4.7,1.1c1.3,0.7,2.5,1.8,3.2,3.1c0.8,1.3,1.2,2.8,1.2,4.5s-0.4,3.2-1.2,4.5c-0.8,1.3-1.9,2.4-3.2,3.1 C33,28.2,31.4,28.6,29.7,28.6z M29.7,24.6c1.3,0,2.3-0.4,3.1-1.3c0.8-0.9,1.2-2,1.2-3.5c0-1.4-0.4-2.6-1.2-3.5 c-0.8-0.9-1.9-1.3-3.1-1.3c-1.3,0-2.3,0.4-3.1,1.3c-0.8,0.9-1.2,2-1.2,3.5c0,1.4,0.4,2.6,1.2,3.5C27.4,24.2,28.4,24.6,29.7,24.6 L29.7,24.6z M43.5,12h4.7v16.6h-4.7V12z M45.9,9.6c-0.9,0-1.7-0.3-2.3-0.8c-0.6-0.5-0.9-1.2-0.9-2c0-0.8,0.3-1.5,0.9-2 C44.2,4.3,44.9,4,45.9,4s1.7,0.3,2.3,0.8C48.7,5.3,49,6,49,6.7c0,0.8-0.3,1.5-0.9,2.1C47.6,9.3,46.8,9.6,45.9,9.6L45.9,9.6z M56.1,28.6c-0.8,0-1.7-0.3-2.2-0.9C53.3,27,53,26.2,53,25.4c0-0.9,0.3-1.7,0.9-2.3c1.3-1.2,3.2-1.2,4.5,0 c0.6,0.6,0.9,1.3,0.9,2.3c0,0.9-0.3,1.7-0.9,2.3C57.8,28.2,57,28.6,56.1,28.6L56.1,28.6z"/> <rect id="Rectangle_1_" y="0.1" class="st1" width="59.3" height="31.6"/> </g> </g> </g> </g> </svg>