<svg width="218" height="57" viewBox="0 0 218 57" fill="none" xmlns="http://www.w3.org/2000/svg">
<path d="M28.541 4.30009C30.9159 1.92522 34.7663 1.92522 37.1412 4.30009L52.576 19.7349C54.9509 22.1098 54.9509 25.9602 52.576 28.3351L28.335 52.5761C25.9602 54.951 22.1097 54.951 19.7348 52.5761L4.30003 37.1413C1.92516 34.7664 1.92516 30.916 4.30004 28.5411L28.541 4.30009Z" fill="black" fill-opacity="0.5"/>
<path d="M37.551 28.2111C35.1761 25.8362 35.1761 21.9858 37.551 19.6109L52.8587 4.30324C55.2336 1.92836 59.084 1.92837 61.4589 4.30324L85.6999 28.5442C88.0747 30.9191 88.0747 34.7695 85.6999 37.1444L70.3922 52.4521C68.0173 54.827 64.1669 54.827 61.792 52.4521L37.551 28.2111Z" fill="black" fill-opacity="0.5"/>
<path d="M44.9977 12.1835L52.7631 19.9489C55.0304 22.2161 55.0304 25.892 52.7631 28.1592L45.1248 35.7975L37.3594 28.0321C35.0922 25.7649 35.0922 22.089 37.3594 19.8218L44.9977 12.1835Z" fill="#060606"/>
<path d="M106.856 42H111.004V20.784L119.98 42H124.06L133.07 20.784V42H137.218V15.14H130.758L122.02 36.594L113.316 15.14H106.856V42Z" fill="#060606"/>
<path d="M147.12 42.5C150.282 42.5 152.356 41.106 153.308 38.726C153.58 41.378 155.178 42.738 158.646 41.82L158.68 38.998C157.286 39.134 157.014 38.624 157.014 37.162V30.226C157.014 26.146 154.328 23.732 149.364 23.732C144.468 23.732 141.646 26.18 141.646 30.328H145.454C145.454 28.356 146.848 27.166 149.296 27.166C151.88 27.166 153.07 28.288 153.036 30.226V31.11L148.854 31.586C143.72 32.164 141 34.102 141 37.264C141 39.95 142.904 42.5 147.12 42.5ZM147.97 39.44C145.828 39.44 144.978 38.284 144.978 37.128C144.978 35.564 146.746 34.816 150.214 34.408L152.934 34.136C152.764 37.128 150.758 39.44 147.97 39.44Z" fill="#060606"/>
<path d="M169.023 42.5C173.851 42.5 176.809 40.358 176.809 36.992C176.809 29.41 165.351 33.218 165.351 29.206C165.351 27.71 166.643 26.656 168.887 26.656C171.335 26.656 172.831 27.88 172.933 29.92H176.775C176.503 26.112 173.613 23.732 169.193 23.732C164.331 23.732 161.373 26.01 161.373 29.376C161.373 36.754 172.831 32.878 172.831 37.094C172.831 38.488 171.471 39.576 169.159 39.576C166.575 39.576 164.841 38.42 164.739 36.414H160.863C160.965 40.188 164.059 42.5 169.023 42.5Z" fill="#060606"/>
<path d="M188.753 42.5C194.091 42.5 197.899 38.59 197.899 33.082C197.899 27.608 194.091 23.732 188.753 23.732C183.415 23.732 179.607 27.608 179.607 33.082C179.607 38.59 183.415 42.5 188.753 42.5ZM188.753 39.066C185.761 39.066 183.653 36.584 183.653 33.082C183.653 29.614 185.761 27.166 188.753 27.166C191.745 27.166 193.887 29.614 193.887 33.082C193.887 36.584 191.745 39.066 188.753 39.066Z" fill="#060606"/>
<path d="M201.023 41.956H205.035V33.116C205.035 29.614 206.905 27.166 209.829 27.166C212.277 27.166 213.637 28.934 213.637 31.756V41.956H217.683V31.586C217.683 26.418 215.507 23.732 211.155 23.732C208.265 23.732 206.259 25.092 205.035 27.132V24.276H201.023V41.956Z" fill="#060606"/>
</svg>
