<svg width="761" height="161" viewBox="0 0 761 161" fill="none" xmlns="http://www.w3.org/2000/svg">
<g clip-path="url(#clip0)">
<path d="M220.751 49.55H238.516C238.366 35.1957 226.935 25.4887 209.095 25.4887C191.555 25.4887 178.924 35.0457 179.037 49.3251C178.999 60.981 187.17 67.5398 200.437 70.5755L208.458 72.4495C216.89 74.3984 220.676 76.6846 220.751 80.9946C220.676 85.6795 216.291 88.9401 208.832 88.9401C200.625 88.9401 195.228 85.1173 194.815 77.734H177.051C177.275 95.6863 189.756 104.269 209.057 104.269C228.171 104.269 239.49 95.6113 239.565 81.0321C239.49 68.7766 231.207 61.2808 216.066 57.9452L209.47 56.4461C202.499 54.9469 198.076 52.6232 198.226 48.0508C198.263 43.8532 201.861 40.8175 209.057 40.8175C216.291 40.8175 220.263 44.0781 220.751 49.55Z" fill="black"/>
<path d="M246.949 103.294H265.276V45.7272H246.949V103.294ZM256.132 39.0185C261.341 39.0185 265.539 35.0832 265.539 30.2485C265.539 25.4137 261.341 21.5159 256.132 21.5159C250.96 21.5159 246.724 25.4137 246.724 30.2485C246.724 35.0832 250.96 39.0185 256.132 39.0185Z" fill="black"/>
<path d="M274.956 103.294H293.283V69.2263C293.283 63.5295 296.619 59.8941 301.416 59.8941C306.176 59.8941 309.324 63.2297 309.324 68.5517V103.294H326.939V68.9265C326.939 63.4171 329.975 59.8941 335.035 59.8941C339.682 59.8941 342.98 63.0048 342.98 68.7391V103.294H361.307V64.5415C361.307 52.3609 353.812 44.9776 342.943 44.9776C334.435 44.9776 327.726 49.4376 325.59 56.2962H324.99C323.454 49.4001 317.27 44.9776 309.287 44.9776C301.416 44.9776 295.42 49.2876 293.021 56.2962H292.384V45.7272H274.956V103.294Z" fill="black"/>
<path d="M370.678 124.882H389.005V93.9622H389.38C391.704 99.2842 396.876 104.119 405.571 104.119C418.313 104.119 428.583 94.1496 428.583 74.5483C428.583 54.2348 417.714 44.9776 405.683 44.9776C396.576 44.9776 391.591 50.2996 389.38 55.5841H388.818V45.7272H370.678V124.882ZM388.63 74.5108C388.63 65.1037 392.528 59.2945 399.237 59.2945C406.02 59.2945 409.768 65.2536 409.768 74.5108C409.768 83.8055 406.02 89.8396 399.237 89.8396C392.528 89.8396 388.63 83.843 388.63 74.5108Z" fill="black"/>
<path d="M454.528 26.5381H436.201V103.294H454.528V26.5381Z" fill="black"/>
<path d="M491.118 104.381C506.222 104.381 516.154 97.073 518.252 85.7544L501.424 85.2672C500 89.09 496.252 91.1513 491.455 91.1513C484.409 91.1513 480.062 86.4665 480.062 79.4205V78.9333H518.44V74.3609C518.44 55.3967 506.896 44.9776 490.556 44.9776C473.166 44.9776 461.997 56.8958 461.997 74.7357C461.997 93.1752 473.016 104.381 491.118 104.381ZM480.062 68.2893C480.324 62.5551 484.859 58.2076 490.93 58.2076C496.965 58.2076 501.312 62.4052 501.387 68.2893H480.062Z" fill="black"/>
<path d="M546.504 103.294H565.056V79.458H577.649C595.226 79.458 606.208 69.0389 606.208 53.1105C606.208 37.3319 595.451 26.5381 578.211 26.5381H546.504V103.294ZM565.056 64.8413V41.4921H574.201C582.521 41.4921 586.981 45.9895 586.981 53.1105C586.981 60.1939 582.521 64.8413 574.201 64.8413H565.056Z" fill="black"/>
<path d="M639.106 104.381C657.208 104.381 668.189 92.4256 668.189 74.6982C668.189 56.9333 657.208 44.9776 639.106 44.9776C621.003 44.9776 610.022 56.9333 610.022 74.6982C610.022 92.4256 621.003 104.381 639.106 104.381ZM639.218 90.5517C632.434 90.5517 628.687 84.1054 628.687 74.5858C628.687 65.0287 632.434 58.5449 639.218 58.5449C645.777 58.5449 649.525 65.0287 649.525 74.5858C649.525 84.1054 645.777 90.5517 639.218 90.5517Z" fill="black"/>
<path d="M693.919 26.5381H675.592V103.294H693.919V26.5381Z" fill="black"/>
<path d="M721.926 26.5381H703.599V103.294H721.926V26.5381Z" fill="black"/>
<path fill-rule="evenodd" clip-rule="evenodd" d="M100.372 1.19452C95.3832 1.19452 91.3434 5.23651 91.3434 10.2234V129.556H127.417C132.404 129.556 136.446 125.512 136.446 120.525V10.2234C136.446 5.23651 132.404 1.19452 127.417 1.19452H100.372Z" fill="#F93D6B"/>
<path d="M45.6628 52.1275C45.6628 48.8382 48.3294 46.1716 51.6188 46.1716H91.3253V129.555H45.6628V52.1275Z" fill="#F99F36"/>
<path d="M0 89.8487C0 86.5593 2.66658 83.8927 5.95597 83.8927H45.6625V129.555H6.94863C3.11101 129.555 0 126.444 0 122.607V89.8487Z" fill="#5AD2F9"/>
</g>
<defs>
<clipPath id="clip0">
<rect width="761" height="160.21" fill="white"/>
</clipPath>
</defs>
</svg>
