<?xml version="1.0" encoding="utf-8" standalone="no"?>
<!DOCTYPE svg PUBLIC "-//W3C//DTD SVG 1.1//EN"
  "http://www.w3.org/Graphics/SVG/1.1/DTD/svg11.dtd">
<svg xmlns:xlink="http://www.w3.org/1999/xlink" width="432pt" height="288pt" viewBox="0 0 432 288" xmlns="http://www.w3.org/2000/svg" version="1.1">
 <metadata>
  <rdf:RDF xmlns:dc="http://purl.org/dc/elements/1.1/" xmlns:cc="http://creativecommons.org/ns#" xmlns:rdf="http://www.w3.org/1999/02/22-rdf-syntax-ns#">
   <cc:Work>
    <dc:type rdf:resource="http://purl.org/dc/dcmitype/StillImage"/>
    <dc:date>2022-08-03T16:48:12.165053</dc:date>
    <dc:format>image/svg+xml</dc:format>
    <dc:creator>
     <cc:Agent>
      <dc:title>Matplotlib v3.5.2, https://matplotlib.org/</dc:title>
     </cc:Agent>
    </dc:creator>
   </cc:Work>
  </rdf:RDF>
 </metadata>
 <defs>
  <style type="text/css">*{stroke-linejoin: round; stroke-linecap: butt}</style>
 </defs>
 <g id="figure_1">
  <g id="patch_1">
   <path d="M 0 288 
L 432 288 
L 432 0 
L 0 0 
L 0 288 
z
" style="fill: none"/>
  </g>
  <g id="axes_1">
   <g id="patch_2">
    <path d="M 54 252 
L 388.8 252 
L 388.8 34.56 
L 54 34.56 
L 54 252 
z
" style="fill: none"/>
   </g>
   <g id="patch_3">
    <path d="M 69.218182 252 
L 72.323933 252 
L 72.323933 44.914286 
L 69.218182 44.914286 
z
" clip-path="url(#pde692e8daf)" style="fill: #4287f5; opacity: 0.75"/>
   </g>
   <g id="patch_4">
    <path d="M 72.323933 252 
L 75.429685 252 
L 75.429685 152.191192 
L 72.323933 152.191192 
z
" clip-path="url(#pde692e8daf)" style="fill: #4287f5; opacity: 0.75"/>
   </g>
   <g id="patch_5">
    <path d="M 75.429685 252 
L 78.535436 252 
L 78.535436 190.280223 
L 75.429685 190.280223 
z
" clip-path="url(#pde692e8daf)" style="fill: #4287f5; opacity: 0.75"/>
   </g>
   <g id="patch_6">
    <path d="M 78.535436 252 
L 81.641187 252 
L 81.641187 209.799772 
L 78.535436 209.799772 
z
" clip-path="url(#pde692e8daf)" style="fill: #4287f5; opacity: 0.75"/>
   </g>
   <g id="patch_7">
    <path d="M 81.641187 252 
L 84.746939 252 
L 84.746939 220.08928 
L 81.641187 220.08928 
z
" clip-path="url(#pde692e8daf)" style="fill: #4287f5; opacity: 0.75"/>
   </g>
   <g id="patch_8">
    <path d="M 84.746939 252 
L 87.85269 252 
L 87.85269 227.137047 
L 84.746939 227.137047 
z
" clip-path="url(#pde692e8daf)" style="fill: #4287f5; opacity: 0.75"/>
   </g>
   <g id="patch_9">
    <path d="M 87.85269 252 
L 90.958442 252 
L 90.958442 231.610996 
L 87.85269 231.610996 
z
" clip-path="url(#pde692e8daf)" style="fill: #4287f5; opacity: 0.75"/>
   </g>
   <g id="patch_10">
    <path d="M 90.958442 252 
L 94.064193 252 
L 94.064193 234.610903 
L 90.958442 234.610903 
z
" clip-path="url(#pde692e8daf)" style="fill: #4287f5; opacity: 0.75"/>
   </g>
   <g id="patch_11">
    <path d="M 94.064193 252 
L 97.169944 252 
L 97.169944 236.010092 
L 94.064193 236.010092 
z
" clip-path="url(#pde692e8daf)" style="fill: #4287f5; opacity: 0.75"/>
   </g>
   <g id="patch_12">
    <path d="M 97.169944 252 
L 100.275696 252 
L 100.275696 236.873789 
L 97.169944 236.873789 
z
" clip-path="url(#pde692e8daf)" style="fill: #4287f5; opacity: 0.75"/>
   </g>
   <g id="patch_13">
    <path d="M 100.275696 252 
L 103.381447 252 
L 103.381447 237.582021 
L 100.275696 237.582021 
z
" clip-path="url(#pde692e8daf)" style="fill: #4287f5; opacity: 0.75"/>
   </g>
   <g id="patch_14">
    <path d="M 103.381447 252 
L 106.487199 252 
L 106.487199 238.439959 
L 103.381447 238.439959 
z
" clip-path="url(#pde692e8daf)" style="fill: #4287f5; opacity: 0.75"/>
   </g>
   <g id="patch_15">
    <path d="M 106.487199 252 
L 109.59295 252 
L 109.59295 238.658763 
L 106.487199 238.658763 
z
" clip-path="url(#pde692e8daf)" style="fill: #4287f5; opacity: 0.75"/>
   </g>
   <g id="patch_16">
    <path d="M 109.59295 252 
L 112.698701 252 
L 112.698701 239.591555 
L 109.59295 239.591555 
z
" clip-path="url(#pde692e8daf)" style="fill: #4287f5; opacity: 0.75"/>
   </g>
   <g id="patch_17">
    <path d="M 112.698701 252 
L 115.804453 252 
L 115.804453 238.226914 
L 112.698701 238.226914 
z
" clip-path="url(#pde692e8daf)" style="fill: #4287f5; opacity: 0.75"/>
   </g>
   <g id="patch_18">
    <path d="M 115.804453 252 
L 118.910204 252 
L 118.910204 236.914095 
L 115.804453 236.914095 
z
" clip-path="url(#pde692e8daf)" style="fill: #4287f5; opacity: 0.75"/>
   </g>
   <g id="patch_19">
    <path d="M 118.910204 252 
L 122.015955 252 
L 122.015955 236.78742 
L 118.910204 236.78742 
z
" clip-path="url(#pde692e8daf)" style="fill: #4287f5; opacity: 0.75"/>
   </g>
   <g id="patch_20">
    <path d="M 122.015955 252 
L 125.121707 252 
L 125.121707 236.64347 
L 122.015955 236.64347 
z
" clip-path="url(#pde692e8daf)" style="fill: #4287f5; opacity: 0.75"/>
   </g>
   <g id="patch_21">
    <path d="M 125.121707 252 
L 128.227458 252 
L 128.227458 238.019627 
L 125.121707 238.019627 
z
" clip-path="url(#pde692e8daf)" style="fill: #4287f5; opacity: 0.75"/>
   </g>
   <g id="patch_22">
    <path d="M 128.227458 252 
L 131.33321 252 
L 131.33321 238.082965 
L 128.227458 238.082965 
z
" clip-path="url(#pde692e8daf)" style="fill: #4287f5; opacity: 0.75"/>
   </g>
   <g id="patch_23">
    <path d="M 131.33321 252 
L 134.438961 252 
L 134.438961 240.00613 
L 131.33321 240.00613 
z
" clip-path="url(#pde692e8daf)" style="fill: #4287f5; opacity: 0.75"/>
   </g>
   <g id="patch_24">
    <path d="M 134.438961 252 
L 137.544712 252 
L 137.544712 239.603071 
L 134.438961 239.603071 
z
" clip-path="url(#pde692e8daf)" style="fill: #4287f5; opacity: 0.75"/>
   </g>
   <g id="patch_25">
    <path d="M 137.544712 252 
L 140.650464 252 
L 140.650464 240.455252 
L 137.544712 240.455252 
z
" clip-path="url(#pde692e8daf)" style="fill: #4287f5; opacity: 0.75"/>
   </g>
   <g id="patch_26">
    <path d="M 140.650464 252 
L 143.756215 252 
L 143.756215 241.468656 
L 140.650464 241.468656 
z
" clip-path="url(#pde692e8daf)" style="fill: #4287f5; opacity: 0.75"/>
   </g>
   <g id="patch_27">
    <path d="M 143.756215 252 
L 146.861967 252 
L 146.861967 243.950345 
L 143.756215 243.950345 
z
" clip-path="url(#pde692e8daf)" style="fill: #4287f5; opacity: 0.75"/>
   </g>
   <g id="patch_28">
    <path d="M 146.861967 252 
L 149.967718 252 
L 149.967718 245.689255 
L 146.861967 245.689255 
z
" clip-path="url(#pde692e8daf)" style="fill: #4287f5; opacity: 0.75"/>
   </g>
   <g id="patch_29">
    <path d="M 149.967718 252 
L 153.073469 252 
L 153.073469 246.270811 
L 149.967718 246.270811 
z
" clip-path="url(#pde692e8daf)" style="fill: #4287f5; opacity: 0.75"/>
   </g>
   <g id="patch_30">
    <path d="M 153.073469 252 
L 156.179221 252 
L 156.179221 246.95601 
L 153.073469 246.95601 
z
" clip-path="url(#pde692e8daf)" style="fill: #4287f5; opacity: 0.75"/>
   </g>
   <g id="patch_31">
    <path d="M 156.179221 252 
L 159.284972 252 
L 159.284972 247.405133 
L 156.179221 247.405133 
z
" clip-path="url(#pde692e8daf)" style="fill: #4287f5; opacity: 0.75"/>
   </g>
   <g id="patch_32">
    <path d="M 159.284972 252 
L 162.390724 252 
L 162.390724 248.061542 
L 159.284972 248.061542 
z
" clip-path="url(#pde692e8daf)" style="fill: #4287f5; opacity: 0.75"/>
   </g>
   <g id="patch_33">
    <path d="M 162.390724 252 
L 165.496475 252 
L 165.496475 248.625824 
L 162.390724 248.625824 
z
" clip-path="url(#pde692e8daf)" style="fill: #4287f5; opacity: 0.75"/>
   </g>
   <g id="patch_34">
    <path d="M 165.496475 252 
L 168.602226 252 
L 168.602226 249.161316 
L 165.496475 249.161316 
z
" clip-path="url(#pde692e8daf)" style="fill: #4287f5; opacity: 0.75"/>
   </g>
   <g id="patch_35">
    <path d="M 168.602226 252 
L 171.707978 252 
L 171.707978 249.368604 
L 168.602226 249.368604 
z
" clip-path="url(#pde692e8daf)" style="fill: #4287f5; opacity: 0.75"/>
   </g>
   <g id="patch_36">
    <path d="M 171.707978 252 
L 174.813729 252 
L 174.813729 249.616197 
L 171.707978 249.616197 
z
" clip-path="url(#pde692e8daf)" style="fill: #4287f5; opacity: 0.75"/>
   </g>
   <g id="patch_37">
    <path d="M 174.813729 252 
L 177.919481 252 
L 177.919481 249.23617 
L 174.813729 249.23617 
z
" clip-path="url(#pde692e8daf)" style="fill: #4287f5; opacity: 0.75"/>
   </g>
   <g id="patch_38">
    <path d="M 177.919481 252 
L 181.025232 252 
L 181.025232 249.454973 
L 177.919481 249.454973 
z
" clip-path="url(#pde692e8daf)" style="fill: #4287f5; opacity: 0.75"/>
   </g>
   <g id="patch_39">
    <path d="M 181.025232 252 
L 184.130983 252 
L 184.130983 249.575891 
L 181.025232 249.575891 
z
" clip-path="url(#pde692e8daf)" style="fill: #4287f5; opacity: 0.75"/>
   </g>
   <g id="patch_40">
    <path d="M 184.130983 252 
L 187.236735 252 
L 187.236735 249.472247 
L 184.130983 249.472247 
z
" clip-path="url(#pde692e8daf)" style="fill: #4287f5; opacity: 0.75"/>
   </g>
   <g id="patch_41">
    <path d="M 187.236735 252 
L 190.342486 252 
L 190.342486 249.29375 
L 187.236735 249.29375 
z
" clip-path="url(#pde692e8daf)" style="fill: #4287f5; opacity: 0.75"/>
   </g>
   <g id="patch_42">
    <path d="M 190.342486 252 
L 193.448237 252 
L 193.448237 249.080705 
L 190.342486 249.080705 
z
" clip-path="url(#pde692e8daf)" style="fill: #4287f5; opacity: 0.75"/>
   </g>
   <g id="patch_43">
    <path d="M 193.448237 252 
L 196.553989 252 
L 196.553989 248.591276 
L 193.448237 248.591276 
z
" clip-path="url(#pde692e8daf)" style="fill: #4287f5; opacity: 0.75"/>
   </g>
   <g id="patch_44">
    <path d="M 196.553989 252 
L 199.65974 252 
L 199.65974 248.360957 
L 196.553989 248.360957 
z
" clip-path="url(#pde692e8daf)" style="fill: #4287f5; opacity: 0.75"/>
   </g>
   <g id="patch_45">
    <path d="M 199.65974 252 
L 202.765492 252 
L 202.765492 248.574003 
L 199.65974 248.574003 
z
" clip-path="url(#pde692e8daf)" style="fill: #4287f5; opacity: 0.75"/>
   </g>
   <g id="patch_46">
    <path d="M 202.765492 252 
L 205.871243 252 
L 205.871243 248.729468 
L 202.765492 248.729468 
z
" clip-path="url(#pde692e8daf)" style="fill: #4287f5; opacity: 0.75"/>
   </g>
   <g id="patch_47">
    <path d="M 205.871243 252 
L 208.976994 252 
L 208.976994 248.395505 
L 205.871243 248.395505 
z
" clip-path="url(#pde692e8daf)" style="fill: #4287f5; opacity: 0.75"/>
   </g>
   <g id="patch_48">
    <path d="M 208.976994 252 
L 212.082746 252 
L 212.082746 248.29762 
L 208.976994 248.29762 
z
" clip-path="url(#pde692e8daf)" style="fill: #4287f5; opacity: 0.75"/>
   </g>
   <g id="patch_49">
    <path d="M 212.082746 252 
L 215.188497 252 
L 215.188497 248.378231 
L 212.082746 248.378231 
z
" clip-path="url(#pde692e8daf)" style="fill: #4287f5; opacity: 0.75"/>
   </g>
   <g id="patch_50">
    <path d="M 215.188497 252 
L 218.294249 252 
L 218.294249 248.545213 
L 215.188497 248.545213 
z
" clip-path="url(#pde692e8daf)" style="fill: #4287f5; opacity: 0.75"/>
   </g>
   <g id="patch_51">
    <path d="M 218.294249 252 
L 221.4 252 
L 221.4 248.936755 
L 218.294249 248.936755 
z
" clip-path="url(#pde692e8daf)" style="fill: #4287f5; opacity: 0.75"/>
   </g>
   <g id="patch_52">
    <path d="M 221.4 252 
L 224.505751 252 
L 224.505751 249.276476 
L 221.4 249.276476 
z
" clip-path="url(#pde692e8daf)" style="fill: #4287f5; opacity: 0.75"/>
   </g>
   <g id="patch_53">
    <path d="M 224.505751 252 
L 227.611503 252 
L 227.611503 249.541343 
L 224.505751 249.541343 
z
" clip-path="url(#pde692e8daf)" style="fill: #4287f5; opacity: 0.75"/>
   </g>
   <g id="patch_54">
    <path d="M 227.611503 252 
L 230.717254 252 
L 230.717254 249.811968 
L 227.611503 249.811968 
z
" clip-path="url(#pde692e8daf)" style="fill: #4287f5; opacity: 0.75"/>
   </g>
   <g id="patch_55">
    <path d="M 230.717254 252 
L 233.823006 252 
L 233.823006 249.967433 
L 230.717254 249.967433 
z
" clip-path="url(#pde692e8daf)" style="fill: #4287f5; opacity: 0.75"/>
   </g>
   <g id="patch_56">
    <path d="M 233.823006 252 
L 236.928757 252 
L 236.928757 250.238058 
L 233.823006 250.238058 
z
" clip-path="url(#pde692e8daf)" style="fill: #4287f5; opacity: 0.75"/>
   </g>
   <g id="patch_57">
    <path d="M 236.928757 252 
L 240.034508 252 
L 240.034508 250.163205 
L 236.928757 250.163205 
z
" clip-path="url(#pde692e8daf)" style="fill: #4287f5; opacity: 0.75"/>
   </g>
   <g id="patch_58">
    <path d="M 240.034508 252 
L 243.14026 252 
L 243.14026 250.439588 
L 240.034508 250.439588 
z
" clip-path="url(#pde692e8daf)" style="fill: #4287f5; opacity: 0.75"/>
   </g>
   <g id="patch_59">
    <path d="M 243.14026 252 
L 246.246011 252 
L 246.246011 250.537473 
L 243.14026 250.537473 
z
" clip-path="url(#pde692e8daf)" style="fill: #4287f5; opacity: 0.75"/>
   </g>
   <g id="patch_60">
    <path d="M 246.246011 252 
L 249.351763 252 
L 249.351763 250.497167 
L 246.246011 250.497167 
z
" clip-path="url(#pde692e8daf)" style="fill: #4287f5; opacity: 0.75"/>
   </g>
   <g id="patch_61">
    <path d="M 249.351763 252 
L 252.457514 252 
L 252.457514 250.422314 
L 249.351763 250.422314 
z
" clip-path="url(#pde692e8daf)" style="fill: #4287f5; opacity: 0.75"/>
   </g>
   <g id="patch_62">
    <path d="M 252.457514 252 
L 255.563265 252 
L 255.563265 250.295638 
L 252.457514 250.295638 
z
" clip-path="url(#pde692e8daf)" style="fill: #4287f5; opacity: 0.75"/>
   </g>
   <g id="patch_63">
    <path d="M 255.563265 252 
L 258.669017 252 
L 258.669017 250.019255 
L 255.563265 250.019255 
z
" clip-path="url(#pde692e8daf)" style="fill: #4287f5; opacity: 0.75"/>
   </g>
   <g id="patch_64">
    <path d="M 258.669017 252 
L 261.774768 252 
L 261.774768 250.226542 
L 258.669017 250.226542 
z
" clip-path="url(#pde692e8daf)" style="fill: #4287f5; opacity: 0.75"/>
   </g>
   <g id="patch_65">
    <path d="M 261.774768 252 
L 264.880519 252 
L 264.880519 250.025013 
L 261.774768 250.025013 
z
" clip-path="url(#pde692e8daf)" style="fill: #4287f5; opacity: 0.75"/>
   </g>
   <g id="patch_66">
    <path d="M 264.880519 252 
L 267.986271 252 
L 267.986271 249.489521 
L 264.880519 249.489521 
z
" clip-path="url(#pde692e8daf)" style="fill: #4287f5; opacity: 0.75"/>
   </g>
   <g id="patch_67">
    <path d="M 267.986271 252 
L 271.092022 252 
L 271.092022 249.057673 
L 267.986271 249.057673 
z
" clip-path="url(#pde692e8daf)" style="fill: #4287f5; opacity: 0.75"/>
   </g>
   <g id="patch_68">
    <path d="M 271.092022 252 
L 274.197774 252 
L 274.197774 248.850385 
L 271.092022 248.850385 
z
" clip-path="url(#pde692e8daf)" style="fill: #4287f5; opacity: 0.75"/>
   </g>
   <g id="patch_69">
    <path d="M 274.197774 252 
L 277.303525 252 
L 277.303525 249.080705 
L 274.197774 249.080705 
z
" clip-path="url(#pde692e8daf)" style="fill: #4287f5; opacity: 0.75"/>
   </g>
   <g id="patch_70">
    <path d="M 277.303525 252 
L 280.409276 252 
L 280.409276 249.218896 
L 277.303525 249.218896 
z
" clip-path="url(#pde692e8daf)" style="fill: #4287f5; opacity: 0.75"/>
   </g>
   <g id="patch_71">
    <path d="M 280.409276 252 
L 283.515028 252 
L 283.515028 249.011609 
L 280.409276 249.011609 
z
" clip-path="url(#pde692e8daf)" style="fill: #4287f5; opacity: 0.75"/>
   </g>
   <g id="patch_72">
    <path d="M 283.515028 252 
L 286.620779 252 
L 286.620779 248.867659 
L 283.515028 248.867659 
z
" clip-path="url(#pde692e8daf)" style="fill: #4287f5; opacity: 0.75"/>
   </g>
   <g id="patch_73">
    <path d="M 286.620779 252 
L 289.726531 252 
L 289.726531 248.78129 
L 286.620779 248.78129 
z
" clip-path="url(#pde692e8daf)" style="fill: #4287f5; opacity: 0.75"/>
   </g>
   <g id="patch_74">
    <path d="M 289.726531 252 
L 292.832282 252 
L 292.832282 249.259202 
L 289.726531 249.259202 
z
" clip-path="url(#pde692e8daf)" style="fill: #4287f5; opacity: 0.75"/>
   </g>
   <g id="patch_75">
    <path d="M 292.832282 252 
L 295.938033 252 
L 295.938033 249.529827 
L 292.832282 249.529827 
z
" clip-path="url(#pde692e8daf)" style="fill: #4287f5; opacity: 0.75"/>
   </g>
   <g id="patch_76">
    <path d="M 295.938033 252 
L 299.043785 252 
L 299.043785 249.794694 
L 295.938033 249.794694 
z
" clip-path="url(#pde692e8daf)" style="fill: #4287f5; opacity: 0.75"/>
   </g>
   <g id="patch_77">
    <path d="M 299.043785 252 
L 302.149536 252 
L 302.149536 250.215027 
L 299.043785 250.215027 
z
" clip-path="url(#pde692e8daf)" style="fill: #4287f5; opacity: 0.75"/>
   </g>
   <g id="patch_78">
    <path d="M 302.149536 252 
L 305.255288 252 
L 305.255288 250.508683 
L 302.149536 250.508683 
z
" clip-path="url(#pde692e8daf)" style="fill: #4287f5; opacity: 0.75"/>
   </g>
   <g id="patch_79">
    <path d="M 305.255288 252 
L 308.361039 252 
L 308.361039 250.335944 
L 305.255288 250.335944 
z
" clip-path="url(#pde692e8daf)" style="fill: #4287f5; opacity: 0.75"/>
   </g>
   <g id="patch_80">
    <path d="M 308.361039 252 
L 311.46679 252 
L 311.46679 250.525957 
L 308.361039 250.525957 
z
" clip-path="url(#pde692e8daf)" style="fill: #4287f5; opacity: 0.75"/>
   </g>
   <g id="patch_81">
    <path d="M 311.46679 252 
L 314.572542 252 
L 314.572542 250.796582 
L 311.46679 250.796582 
z
" clip-path="url(#pde692e8daf)" style="fill: #4287f5; opacity: 0.75"/>
   </g>
   <g id="patch_82">
    <path d="M 314.572542 252 
L 317.678293 252 
L 317.678293 250.934774 
L 314.572542 250.934774 
z
" clip-path="url(#pde692e8daf)" style="fill: #4287f5; opacity: 0.75"/>
   </g>
   <g id="patch_83">
    <path d="M 317.678293 252 
L 320.784045 252 
L 320.784045 250.957806 
L 317.678293 250.957806 
z
" clip-path="url(#pde692e8daf)" style="fill: #4287f5; opacity: 0.75"/>
   </g>
   <g id="patch_84">
    <path d="M 320.784045 252 
L 323.889796 252 
L 323.889796 250.88871 
L 320.784045 250.88871 
z
" clip-path="url(#pde692e8daf)" style="fill: #4287f5; opacity: 0.75"/>
   </g>
   <g id="patch_85">
    <path d="M 323.889796 252 
L 326.995547 252 
L 326.995547 250.963564 
L 323.889796 250.963564 
z
" clip-path="url(#pde692e8daf)" style="fill: #4287f5; opacity: 0.75"/>
   </g>
   <g id="patch_86">
    <path d="M 326.995547 252 
L 330.101299 252 
L 330.101299 251.061449 
L 326.995547 251.061449 
z
" clip-path="url(#pde692e8daf)" style="fill: #4287f5; opacity: 0.75"/>
   </g>
   <g id="patch_87">
    <path d="M 330.101299 252 
L 333.20705 252 
L 333.20705 250.825372 
L 330.101299 250.825372 
z
" clip-path="url(#pde692e8daf)" style="fill: #4287f5; opacity: 0.75"/>
   </g>
   <g id="patch_88">
    <path d="M 333.20705 252 
L 336.312801 252 
L 336.312801 250.963564 
L 333.20705 250.963564 
z
" clip-path="url(#pde692e8daf)" style="fill: #4287f5; opacity: 0.75"/>
   </g>
   <g id="patch_89">
    <path d="M 336.312801 252 
L 339.418553 252 
L 339.418553 250.739003 
L 336.312801 250.739003 
z
" clip-path="url(#pde692e8daf)" style="fill: #4287f5; opacity: 0.75"/>
   </g>
   <g id="patch_90">
    <path d="M 339.418553 252 
L 342.524304 252 
L 342.524304 250.618085 
L 339.418553 250.618085 
z
" clip-path="url(#pde692e8daf)" style="fill: #4287f5; opacity: 0.75"/>
   </g>
   <g id="patch_91">
    <path d="M 342.524304 252 
L 345.630056 252 
L 345.630056 250.215027 
L 342.524304 250.215027 
z
" clip-path="url(#pde692e8daf)" style="fill: #4287f5; opacity: 0.75"/>
   </g>
   <g id="patch_92">
    <path d="M 345.630056 252 
L 348.735807 252 
L 348.735807 250.215027 
L 345.630056 250.215027 
z
" clip-path="url(#pde692e8daf)" style="fill: #4287f5; opacity: 0.75"/>
   </g>
   <g id="patch_93">
    <path d="M 348.735807 252 
L 351.841558 252 
L 351.841558 250.145931 
L 348.735807 250.145931 
z
" clip-path="url(#pde692e8daf)" style="fill: #4287f5; opacity: 0.75"/>
   </g>
   <g id="patch_94">
    <path d="M 351.841558 252 
L 354.94731 252 
L 354.94731 250.2323 
L 351.841558 250.2323 
z
" clip-path="url(#pde692e8daf)" style="fill: #4287f5; opacity: 0.75"/>
   </g>
   <g id="patch_95">
    <path d="M 354.94731 252 
L 358.053061 252 
L 358.053061 249.909854 
L 354.94731 249.909854 
z
" clip-path="url(#pde692e8daf)" style="fill: #4287f5; opacity: 0.75"/>
   </g>
   <g id="patch_96">
    <path d="M 358.053061 252 
L 361.158813 252 
L 361.158813 249.904096 
L 358.053061 249.904096 
z
" clip-path="url(#pde692e8daf)" style="fill: #4287f5; opacity: 0.75"/>
   </g>
   <g id="patch_97">
    <path d="M 361.158813 252 
L 364.264564 252 
L 364.264564 250.128657 
L 361.158813 250.128657 
z
" clip-path="url(#pde692e8daf)" style="fill: #4287f5; opacity: 0.75"/>
   </g>
   <g id="patch_98">
    <path d="M 364.264564 252 
L 367.370315 252 
L 367.370315 249.932886 
L 364.264564 249.932886 
z
" clip-path="url(#pde692e8daf)" style="fill: #4287f5; opacity: 0.75"/>
   </g>
   <g id="patch_99">
    <path d="M 367.370315 252 
L 370.476067 252 
L 370.476067 250.456862 
L 367.370315 250.456862 
z
" clip-path="url(#pde692e8daf)" style="fill: #4287f5; opacity: 0.75"/>
   </g>
   <g id="patch_100">
    <path d="M 370.476067 252 
L 373.581818 252 
L 373.581818 249.368604 
L 370.476067 249.368604 
z
" clip-path="url(#pde692e8daf)" style="fill: #4287f5; opacity: 0.75"/>
   </g>
   <g id="matplotlib.axis_1">
    <g id="xtick_1">
     <g id="line2d_1">
      <defs>
       <path id="m7a4babc848" d="M 0 0 
L 0 3.5 
" style="stroke: #000000; stroke-width: 0.8"/>
      </defs>
      <g>
       <use xlink:href="#m7a4babc848" x="66.11243" y="252" style="stroke: #000000; stroke-width: 0.8"/>
      </g>
     </g>
     <g id="text_1">
      <!-- 0 -->
      <g transform="translate(62.93118 266.598437)scale(0.1 -0.1)">
       <defs>
        <path id="DejaVuSans-30" d="M 2034 4250 
Q 1547 4250 1301 3770 
Q 1056 3291 1056 2328 
Q 1056 1369 1301 889 
Q 1547 409 2034 409 
Q 2525 409 2770 889 
Q 3016 1369 3016 2328 
Q 3016 3291 2770 3770 
Q 2525 4250 2034 4250 
z
M 2034 4750 
Q 2819 4750 3233 4129 
Q 3647 3509 3647 2328 
Q 3647 1150 3233 529 
Q 2819 -91 2034 -91 
Q 1250 -91 836 529 
Q 422 1150 422 2328 
Q 422 3509 836 4129 
Q 1250 4750 2034 4750 
z
" transform="scale(0.015625)"/>
       </defs>
       <use xlink:href="#DejaVuSans-30"/>
      </g>
     </g>
    </g>
    <g id="xtick_2">
     <g id="line2d_2">
      <g>
       <use xlink:href="#m7a4babc848" x="128.227458" y="252" style="stroke: #000000; stroke-width: 0.8"/>
      </g>
     </g>
     <g id="text_2">
      <!-- 20 -->
      <g transform="translate(121.864958 266.598437)scale(0.1 -0.1)">
       <defs>
        <path id="DejaVuSans-32" d="M 1228 531 
L 3431 531 
L 3431 0 
L 469 0 
L 469 531 
Q 828 903 1448 1529 
Q 2069 2156 2228 2338 
Q 2531 2678 2651 2914 
Q 2772 3150 2772 3378 
Q 2772 3750 2511 3984 
Q 2250 4219 1831 4219 
Q 1534 4219 1204 4116 
Q 875 4013 500 3803 
L 500 4441 
Q 881 4594 1212 4672 
Q 1544 4750 1819 4750 
Q 2544 4750 2975 4387 
Q 3406 4025 3406 3419 
Q 3406 3131 3298 2873 
Q 3191 2616 2906 2266 
Q 2828 2175 2409 1742 
Q 1991 1309 1228 531 
z
" transform="scale(0.015625)"/>
       </defs>
       <use xlink:href="#DejaVuSans-32"/>
       <use xlink:href="#DejaVuSans-30" x="63.623047"/>
      </g>
     </g>
    </g>
    <g id="xtick_3">
     <g id="line2d_3">
      <g>
       <use xlink:href="#m7a4babc848" x="190.342486" y="252" style="stroke: #000000; stroke-width: 0.8"/>
      </g>
     </g>
     <g id="text_3">
      <!-- 40 -->
      <g transform="translate(183.979986 266.598437)scale(0.1 -0.1)">
       <defs>
        <path id="DejaVuSans-34" d="M 2419 4116 
L 825 1625 
L 2419 1625 
L 2419 4116 
z
M 2253 4666 
L 3047 4666 
L 3047 1625 
L 3713 1625 
L 3713 1100 
L 3047 1100 
L 3047 0 
L 2419 0 
L 2419 1100 
L 313 1100 
L 313 1709 
L 2253 4666 
z
" transform="scale(0.015625)"/>
       </defs>
       <use xlink:href="#DejaVuSans-34"/>
       <use xlink:href="#DejaVuSans-30" x="63.623047"/>
      </g>
     </g>
    </g>
    <g id="xtick_4">
     <g id="line2d_4">
      <g>
       <use xlink:href="#m7a4babc848" x="252.457514" y="252" style="stroke: #000000; stroke-width: 0.8"/>
      </g>
     </g>
     <g id="text_4">
      <!-- 60 -->
      <g transform="translate(246.095014 266.598437)scale(0.1 -0.1)">
       <defs>
        <path id="DejaVuSans-36" d="M 2113 2584 
Q 1688 2584 1439 2293 
Q 1191 2003 1191 1497 
Q 1191 994 1439 701 
Q 1688 409 2113 409 
Q 2538 409 2786 701 
Q 3034 994 3034 1497 
Q 3034 2003 2786 2293 
Q 2538 2584 2113 2584 
z
M 3366 4563 
L 3366 3988 
Q 3128 4100 2886 4159 
Q 2644 4219 2406 4219 
Q 1781 4219 1451 3797 
Q 1122 3375 1075 2522 
Q 1259 2794 1537 2939 
Q 1816 3084 2150 3084 
Q 2853 3084 3261 2657 
Q 3669 2231 3669 1497 
Q 3669 778 3244 343 
Q 2819 -91 2113 -91 
Q 1303 -91 875 529 
Q 447 1150 447 2328 
Q 447 3434 972 4092 
Q 1497 4750 2381 4750 
Q 2619 4750 2861 4703 
Q 3103 4656 3366 4563 
z
" transform="scale(0.015625)"/>
       </defs>
       <use xlink:href="#DejaVuSans-36"/>
       <use xlink:href="#DejaVuSans-30" x="63.623047"/>
      </g>
     </g>
    </g>
    <g id="xtick_5">
     <g id="line2d_5">
      <g>
       <use xlink:href="#m7a4babc848" x="314.572542" y="252" style="stroke: #000000; stroke-width: 0.8"/>
      </g>
     </g>
     <g id="text_5">
      <!-- 80 -->
      <g transform="translate(308.210042 266.598437)scale(0.1 -0.1)">
       <defs>
        <path id="DejaVuSans-38" d="M 2034 2216 
Q 1584 2216 1326 1975 
Q 1069 1734 1069 1313 
Q 1069 891 1326 650 
Q 1584 409 2034 409 
Q 2484 409 2743 651 
Q 3003 894 3003 1313 
Q 3003 1734 2745 1975 
Q 2488 2216 2034 2216 
z
M 1403 2484 
Q 997 2584 770 2862 
Q 544 3141 544 3541 
Q 544 4100 942 4425 
Q 1341 4750 2034 4750 
Q 2731 4750 3128 4425 
Q 3525 4100 3525 3541 
Q 3525 3141 3298 2862 
Q 3072 2584 2669 2484 
Q 3125 2378 3379 2068 
Q 3634 1759 3634 1313 
Q 3634 634 3220 271 
Q 2806 -91 2034 -91 
Q 1263 -91 848 271 
Q 434 634 434 1313 
Q 434 1759 690 2068 
Q 947 2378 1403 2484 
z
M 1172 3481 
Q 1172 3119 1398 2916 
Q 1625 2713 2034 2713 
Q 2441 2713 2670 2916 
Q 2900 3119 2900 3481 
Q 2900 3844 2670 4047 
Q 2441 4250 2034 4250 
Q 1625 4250 1398 4047 
Q 1172 3844 1172 3481 
z
" transform="scale(0.015625)"/>
       </defs>
       <use xlink:href="#DejaVuSans-38"/>
       <use xlink:href="#DejaVuSans-30" x="63.623047"/>
      </g>
     </g>
    </g>
    <g id="xtick_6">
     <g id="line2d_6">
      <g>
       <use xlink:href="#m7a4babc848" x="376.68757" y="252" style="stroke: #000000; stroke-width: 0.8"/>
      </g>
     </g>
     <g id="text_6">
      <!-- 100 -->
      <g transform="translate(367.14382 266.598437)scale(0.1 -0.1)">
       <defs>
        <path id="DejaVuSans-31" d="M 794 531 
L 1825 531 
L 1825 4091 
L 703 3866 
L 703 4441 
L 1819 4666 
L 2450 4666 
L 2450 531 
L 3481 531 
L 3481 0 
L 794 0 
L 794 531 
z
" transform="scale(0.015625)"/>
       </defs>
       <use xlink:href="#DejaVuSans-31"/>
       <use xlink:href="#DejaVuSans-30" x="63.623047"/>
       <use xlink:href="#DejaVuSans-30" x="127.246094"/>
      </g>
     </g>
    </g>
    <g id="text_7">
     <!-- Hours to merge -->
     <g transform="translate(182.388281 280.276563)scale(0.1 -0.1)">
      <defs>
       <path id="DejaVuSans-48" d="M 628 4666 
L 1259 4666 
L 1259 2753 
L 3553 2753 
L 3553 4666 
L 4184 4666 
L 4184 0 
L 3553 0 
L 3553 2222 
L 1259 2222 
L 1259 0 
L 628 0 
L 628 4666 
z
" transform="scale(0.015625)"/>
       <path id="DejaVuSans-6f" d="M 1959 3097 
Q 1497 3097 1228 2736 
Q 959 2375 959 1747 
Q 959 1119 1226 758 
Q 1494 397 1959 397 
Q 2419 397 2687 759 
Q 2956 1122 2956 1747 
Q 2956 2369 2687 2733 
Q 2419 3097 1959 3097 
z
M 1959 3584 
Q 2709 3584 3137 3096 
Q 3566 2609 3566 1747 
Q 3566 888 3137 398 
Q 2709 -91 1959 -91 
Q 1206 -91 779 398 
Q 353 888 353 1747 
Q 353 2609 779 3096 
Q 1206 3584 1959 3584 
z
" transform="scale(0.015625)"/>
       <path id="DejaVuSans-75" d="M 544 1381 
L 544 3500 
L 1119 3500 
L 1119 1403 
Q 1119 906 1312 657 
Q 1506 409 1894 409 
Q 2359 409 2629 706 
Q 2900 1003 2900 1516 
L 2900 3500 
L 3475 3500 
L 3475 0 
L 2900 0 
L 2900 538 
Q 2691 219 2414 64 
Q 2138 -91 1772 -91 
Q 1169 -91 856 284 
Q 544 659 544 1381 
z
M 1991 3584 
L 1991 3584 
z
" transform="scale(0.015625)"/>
       <path id="DejaVuSans-72" d="M 2631 2963 
Q 2534 3019 2420 3045 
Q 2306 3072 2169 3072 
Q 1681 3072 1420 2755 
Q 1159 2438 1159 1844 
L 1159 0 
L 581 0 
L 581 3500 
L 1159 3500 
L 1159 2956 
Q 1341 3275 1631 3429 
Q 1922 3584 2338 3584 
Q 2397 3584 2469 3576 
Q 2541 3569 2628 3553 
L 2631 2963 
z
" transform="scale(0.015625)"/>
       <path id="DejaVuSans-73" d="M 2834 3397 
L 2834 2853 
Q 2591 2978 2328 3040 
Q 2066 3103 1784 3103 
Q 1356 3103 1142 2972 
Q 928 2841 928 2578 
Q 928 2378 1081 2264 
Q 1234 2150 1697 2047 
L 1894 2003 
Q 2506 1872 2764 1633 
Q 3022 1394 3022 966 
Q 3022 478 2636 193 
Q 2250 -91 1575 -91 
Q 1294 -91 989 -36 
Q 684 19 347 128 
L 347 722 
Q 666 556 975 473 
Q 1284 391 1588 391 
Q 1994 391 2212 530 
Q 2431 669 2431 922 
Q 2431 1156 2273 1281 
Q 2116 1406 1581 1522 
L 1381 1569 
Q 847 1681 609 1914 
Q 372 2147 372 2553 
Q 372 3047 722 3315 
Q 1072 3584 1716 3584 
Q 2034 3584 2315 3537 
Q 2597 3491 2834 3397 
z
" transform="scale(0.015625)"/>
       <path id="DejaVuSans-20" transform="scale(0.015625)"/>
       <path id="DejaVuSans-74" d="M 1172 4494 
L 1172 3500 
L 2356 3500 
L 2356 3053 
L 1172 3053 
L 1172 1153 
Q 1172 725 1289 603 
Q 1406 481 1766 481 
L 2356 481 
L 2356 0 
L 1766 0 
Q 1100 0 847 248 
Q 594 497 594 1153 
L 594 3053 
L 172 3053 
L 172 3500 
L 594 3500 
L 594 4494 
L 1172 4494 
z
" transform="scale(0.015625)"/>
       <path id="DejaVuSans-6d" d="M 3328 2828 
Q 3544 3216 3844 3400 
Q 4144 3584 4550 3584 
Q 5097 3584 5394 3201 
Q 5691 2819 5691 2113 
L 5691 0 
L 5113 0 
L 5113 2094 
Q 5113 2597 4934 2840 
Q 4756 3084 4391 3084 
Q 3944 3084 3684 2787 
Q 3425 2491 3425 1978 
L 3425 0 
L 2847 0 
L 2847 2094 
Q 2847 2600 2669 2842 
Q 2491 3084 2119 3084 
Q 1678 3084 1418 2786 
Q 1159 2488 1159 1978 
L 1159 0 
L 581 0 
L 581 3500 
L 1159 3500 
L 1159 2956 
Q 1356 3278 1631 3431 
Q 1906 3584 2284 3584 
Q 2666 3584 2933 3390 
Q 3200 3197 3328 2828 
z
" transform="scale(0.015625)"/>
       <path id="DejaVuSans-65" d="M 3597 1894 
L 3597 1613 
L 953 1613 
Q 991 1019 1311 708 
Q 1631 397 2203 397 
Q 2534 397 2845 478 
Q 3156 559 3463 722 
L 3463 178 
Q 3153 47 2828 -22 
Q 2503 -91 2169 -91 
Q 1331 -91 842 396 
Q 353 884 353 1716 
Q 353 2575 817 3079 
Q 1281 3584 2069 3584 
Q 2775 3584 3186 3129 
Q 3597 2675 3597 1894 
z
M 3022 2063 
Q 3016 2534 2758 2815 
Q 2500 3097 2075 3097 
Q 1594 3097 1305 2825 
Q 1016 2553 972 2059 
L 3022 2063 
z
" transform="scale(0.015625)"/>
       <path id="DejaVuSans-67" d="M 2906 1791 
Q 2906 2416 2648 2759 
Q 2391 3103 1925 3103 
Q 1463 3103 1205 2759 
Q 947 2416 947 1791 
Q 947 1169 1205 825 
Q 1463 481 1925 481 
Q 2391 481 2648 825 
Q 2906 1169 2906 1791 
z
M 3481 434 
Q 3481 -459 3084 -895 
Q 2688 -1331 1869 -1331 
Q 1566 -1331 1297 -1286 
Q 1028 -1241 775 -1147 
L 775 -588 
Q 1028 -725 1275 -790 
Q 1522 -856 1778 -856 
Q 2344 -856 2625 -561 
Q 2906 -266 2906 331 
L 2906 616 
Q 2728 306 2450 153 
Q 2172 0 1784 0 
Q 1141 0 747 490 
Q 353 981 353 1791 
Q 353 2603 747 3093 
Q 1141 3584 1784 3584 
Q 2172 3584 2450 3431 
Q 2728 3278 2906 2969 
L 2906 3500 
L 3481 3500 
L 3481 434 
z
" transform="scale(0.015625)"/>
      </defs>
      <use xlink:href="#DejaVuSans-48"/>
      <use xlink:href="#DejaVuSans-6f" x="75.195312"/>
      <use xlink:href="#DejaVuSans-75" x="136.376953"/>
      <use xlink:href="#DejaVuSans-72" x="199.755859"/>
      <use xlink:href="#DejaVuSans-73" x="240.869141"/>
      <use xlink:href="#DejaVuSans-20" x="292.96875"/>
      <use xlink:href="#DejaVuSans-74" x="324.755859"/>
      <use xlink:href="#DejaVuSans-6f" x="363.964844"/>
      <use xlink:href="#DejaVuSans-20" x="425.146484"/>
      <use xlink:href="#DejaVuSans-6d" x="456.933594"/>
      <use xlink:href="#DejaVuSans-65" x="554.345703"/>
      <use xlink:href="#DejaVuSans-72" x="615.869141"/>
      <use xlink:href="#DejaVuSans-67" x="655.232422"/>
      <use xlink:href="#DejaVuSans-65" x="718.708984"/>
     </g>
    </g>
   </g>
   <g id="matplotlib.axis_2">
    <g id="ytick_1">
     <g id="line2d_7">
      <path d="M 54 252 
L 388.8 252 
" clip-path="url(#pde692e8daf)" style="fill: none; stroke: #b0b0b0; stroke-width: 0.8; stroke-linecap: square"/>
     </g>
     <g id="line2d_8">
      <defs>
       <path id="m5daffa71c7" d="M 0 0 
L -3.5 0 
" style="stroke: #000000; stroke-width: 0.8"/>
      </defs>
      <g>
       <use xlink:href="#m5daffa71c7" x="54" y="252" style="stroke: #000000; stroke-width: 0.8"/>
      </g>
     </g>
     <g id="text_8">
      <!-- 0.00 -->
      <g transform="translate(24.734375 255.799219)scale(0.1 -0.1)">
       <defs>
        <path id="DejaVuSans-2e" d="M 684 794 
L 1344 794 
L 1344 0 
L 684 0 
L 684 794 
z
" transform="scale(0.015625)"/>
       </defs>
       <use xlink:href="#DejaVuSans-30"/>
       <use xlink:href="#DejaVuSans-2e" x="63.623047"/>
       <use xlink:href="#DejaVuSans-30" x="95.410156"/>
       <use xlink:href="#DejaVuSans-30" x="159.033203"/>
      </g>
     </g>
    </g>
    <g id="ytick_2">
     <g id="line2d_9">
      <path d="M 54 206.463599 
L 388.8 206.463599 
" clip-path="url(#pde692e8daf)" style="fill: none; stroke: #b0b0b0; stroke-width: 0.8; stroke-linecap: square"/>
     </g>
     <g id="line2d_10">
      <g>
       <use xlink:href="#m5daffa71c7" x="54" y="206.463599" style="stroke: #000000; stroke-width: 0.8"/>
      </g>
     </g>
     <g id="text_9">
      <!-- 0.05 -->
      <g transform="translate(24.734375 210.262818)scale(0.1 -0.1)">
       <defs>
        <path id="DejaVuSans-35" d="M 691 4666 
L 3169 4666 
L 3169 4134 
L 1269 4134 
L 1269 2991 
Q 1406 3038 1543 3061 
Q 1681 3084 1819 3084 
Q 2600 3084 3056 2656 
Q 3513 2228 3513 1497 
Q 3513 744 3044 326 
Q 2575 -91 1722 -91 
Q 1428 -91 1123 -41 
Q 819 9 494 109 
L 494 744 
Q 775 591 1075 516 
Q 1375 441 1709 441 
Q 2250 441 2565 725 
Q 2881 1009 2881 1497 
Q 2881 1984 2565 2268 
Q 2250 2553 1709 2553 
Q 1456 2553 1204 2497 
Q 953 2441 691 2322 
L 691 4666 
z
" transform="scale(0.015625)"/>
       </defs>
       <use xlink:href="#DejaVuSans-30"/>
       <use xlink:href="#DejaVuSans-2e" x="63.623047"/>
       <use xlink:href="#DejaVuSans-30" x="95.410156"/>
       <use xlink:href="#DejaVuSans-35" x="159.033203"/>
      </g>
     </g>
    </g>
    <g id="ytick_3">
     <g id="line2d_11">
      <path d="M 54 160.927198 
L 388.8 160.927198 
" clip-path="url(#pde692e8daf)" style="fill: none; stroke: #b0b0b0; stroke-width: 0.8; stroke-linecap: square"/>
     </g>
     <g id="line2d_12">
      <g>
       <use xlink:href="#m5daffa71c7" x="54" y="160.927198" style="stroke: #000000; stroke-width: 0.8"/>
      </g>
     </g>
     <g id="text_10">
      <!-- 0.10 -->
      <g transform="translate(24.734375 164.726417)scale(0.1 -0.1)">
       <use xlink:href="#DejaVuSans-30"/>
       <use xlink:href="#DejaVuSans-2e" x="63.623047"/>
       <use xlink:href="#DejaVuSans-31" x="95.410156"/>
       <use xlink:href="#DejaVuSans-30" x="159.033203"/>
      </g>
     </g>
    </g>
    <g id="ytick_4">
     <g id="line2d_13">
      <path d="M 54 115.390797 
L 388.8 115.390797 
" clip-path="url(#pde692e8daf)" style="fill: none; stroke: #b0b0b0; stroke-width: 0.8; stroke-linecap: square"/>
     </g>
     <g id="line2d_14">
      <g>
       <use xlink:href="#m5daffa71c7" x="54" y="115.390797" style="stroke: #000000; stroke-width: 0.8"/>
      </g>
     </g>
     <g id="text_11">
      <!-- 0.15 -->
      <g transform="translate(24.734375 119.190016)scale(0.1 -0.1)">
       <use xlink:href="#DejaVuSans-30"/>
       <use xlink:href="#DejaVuSans-2e" x="63.623047"/>
       <use xlink:href="#DejaVuSans-31" x="95.410156"/>
       <use xlink:href="#DejaVuSans-35" x="159.033203"/>
      </g>
     </g>
    </g>
    <g id="ytick_5">
     <g id="line2d_15">
      <path d="M 54 69.854396 
L 388.8 69.854396 
" clip-path="url(#pde692e8daf)" style="fill: none; stroke: #b0b0b0; stroke-width: 0.8; stroke-linecap: square"/>
     </g>
     <g id="line2d_16">
      <g>
       <use xlink:href="#m5daffa71c7" x="54" y="69.854396" style="stroke: #000000; stroke-width: 0.8"/>
      </g>
     </g>
     <g id="text_12">
      <!-- 0.20 -->
      <g transform="translate(24.734375 73.653615)scale(0.1 -0.1)">
       <use xlink:href="#DejaVuSans-30"/>
       <use xlink:href="#DejaVuSans-2e" x="63.623047"/>
       <use xlink:href="#DejaVuSans-32" x="95.410156"/>
       <use xlink:href="#DejaVuSans-30" x="159.033203"/>
      </g>
     </g>
    </g>
    <g id="text_13">
     <!-- Probability -->
     <g transform="translate(18.654687 169.708906)rotate(-90)scale(0.1 -0.1)">
      <defs>
       <path id="DejaVuSans-50" d="M 1259 4147 
L 1259 2394 
L 2053 2394 
Q 2494 2394 2734 2622 
Q 2975 2850 2975 3272 
Q 2975 3691 2734 3919 
Q 2494 4147 2053 4147 
L 1259 4147 
z
M 628 4666 
L 2053 4666 
Q 2838 4666 3239 4311 
Q 3641 3956 3641 3272 
Q 3641 2581 3239 2228 
Q 2838 1875 2053 1875 
L 1259 1875 
L 1259 0 
L 628 0 
L 628 4666 
z
" transform="scale(0.015625)"/>
       <path id="DejaVuSans-62" d="M 3116 1747 
Q 3116 2381 2855 2742 
Q 2594 3103 2138 3103 
Q 1681 3103 1420 2742 
Q 1159 2381 1159 1747 
Q 1159 1113 1420 752 
Q 1681 391 2138 391 
Q 2594 391 2855 752 
Q 3116 1113 3116 1747 
z
M 1159 2969 
Q 1341 3281 1617 3432 
Q 1894 3584 2278 3584 
Q 2916 3584 3314 3078 
Q 3713 2572 3713 1747 
Q 3713 922 3314 415 
Q 2916 -91 2278 -91 
Q 1894 -91 1617 61 
Q 1341 213 1159 525 
L 1159 0 
L 581 0 
L 581 4863 
L 1159 4863 
L 1159 2969 
z
" transform="scale(0.015625)"/>
       <path id="DejaVuSans-61" d="M 2194 1759 
Q 1497 1759 1228 1600 
Q 959 1441 959 1056 
Q 959 750 1161 570 
Q 1363 391 1709 391 
Q 2188 391 2477 730 
Q 2766 1069 2766 1631 
L 2766 1759 
L 2194 1759 
z
M 3341 1997 
L 3341 0 
L 2766 0 
L 2766 531 
Q 2569 213 2275 61 
Q 1981 -91 1556 -91 
Q 1019 -91 701 211 
Q 384 513 384 1019 
Q 384 1609 779 1909 
Q 1175 2209 1959 2209 
L 2766 2209 
L 2766 2266 
Q 2766 2663 2505 2880 
Q 2244 3097 1772 3097 
Q 1472 3097 1187 3025 
Q 903 2953 641 2809 
L 641 3341 
Q 956 3463 1253 3523 
Q 1550 3584 1831 3584 
Q 2591 3584 2966 3190 
Q 3341 2797 3341 1997 
z
" transform="scale(0.015625)"/>
       <path id="DejaVuSans-69" d="M 603 3500 
L 1178 3500 
L 1178 0 
L 603 0 
L 603 3500 
z
M 603 4863 
L 1178 4863 
L 1178 4134 
L 603 4134 
L 603 4863 
z
" transform="scale(0.015625)"/>
       <path id="DejaVuSans-6c" d="M 603 4863 
L 1178 4863 
L 1178 0 
L 603 0 
L 603 4863 
z
" transform="scale(0.015625)"/>
       <path id="DejaVuSans-79" d="M 2059 -325 
Q 1816 -950 1584 -1140 
Q 1353 -1331 966 -1331 
L 506 -1331 
L 506 -850 
L 844 -850 
Q 1081 -850 1212 -737 
Q 1344 -625 1503 -206 
L 1606 56 
L 191 3500 
L 800 3500 
L 1894 763 
L 2988 3500 
L 3597 3500 
L 2059 -325 
z
" transform="scale(0.015625)"/>
      </defs>
      <use xlink:href="#DejaVuSans-50"/>
      <use xlink:href="#DejaVuSans-72" x="58.552734"/>
      <use xlink:href="#DejaVuSans-6f" x="97.416016"/>
      <use xlink:href="#DejaVuSans-62" x="158.597656"/>
      <use xlink:href="#DejaVuSans-61" x="222.074219"/>
      <use xlink:href="#DejaVuSans-62" x="283.353516"/>
      <use xlink:href="#DejaVuSans-69" x="346.830078"/>
      <use xlink:href="#DejaVuSans-6c" x="374.613281"/>
      <use xlink:href="#DejaVuSans-69" x="402.396484"/>
      <use xlink:href="#DejaVuSans-74" x="430.179688"/>
      <use xlink:href="#DejaVuSans-79" x="469.388672"/>
     </g>
    </g>
   </g>
   <g id="patch_101">
    <path d="M 54 252 
L 54 34.56 
" style="fill: none; stroke: #000000; stroke-width: 0.8; stroke-linejoin: miter; stroke-linecap: square"/>
   </g>
   <g id="patch_102">
    <path d="M 388.8 252 
L 388.8 34.56 
" style="fill: none; stroke: #000000; stroke-width: 0.8; stroke-linejoin: miter; stroke-linecap: square"/>
   </g>
   <g id="patch_103">
    <path d="M 54 252 
L 388.8 252 
" style="fill: none; stroke: #000000; stroke-width: 0.8; stroke-linejoin: miter; stroke-linecap: square"/>
   </g>
   <g id="patch_104">
    <path d="M 54 34.56 
L 388.8 34.56 
" style="fill: none; stroke: #000000; stroke-width: 0.8; stroke-linejoin: miter; stroke-linecap: square"/>
   </g>
   <g id="text_14">
    <!-- n = 1,504,914 -->
    <g transform="translate(283.515028 92.622596)scale(0.1 -0.1)">
     <defs>
      <path id="DejaVuSans-6e" d="M 3513 2113 
L 3513 0 
L 2938 0 
L 2938 2094 
Q 2938 2591 2744 2837 
Q 2550 3084 2163 3084 
Q 1697 3084 1428 2787 
Q 1159 2491 1159 1978 
L 1159 0 
L 581 0 
L 581 3500 
L 1159 3500 
L 1159 2956 
Q 1366 3272 1645 3428 
Q 1925 3584 2291 3584 
Q 2894 3584 3203 3211 
Q 3513 2838 3513 2113 
z
" transform="scale(0.015625)"/>
      <path id="DejaVuSans-3d" d="M 678 2906 
L 4684 2906 
L 4684 2381 
L 678 2381 
L 678 2906 
z
M 678 1631 
L 4684 1631 
L 4684 1100 
L 678 1100 
L 678 1631 
z
" transform="scale(0.015625)"/>
      <path id="DejaVuSans-2c" d="M 750 794 
L 1409 794 
L 1409 256 
L 897 -744 
L 494 -744 
L 750 256 
L 750 794 
z
" transform="scale(0.015625)"/>
      <path id="DejaVuSans-39" d="M 703 97 
L 703 672 
Q 941 559 1184 500 
Q 1428 441 1663 441 
Q 2288 441 2617 861 
Q 2947 1281 2994 2138 
Q 2813 1869 2534 1725 
Q 2256 1581 1919 1581 
Q 1219 1581 811 2004 
Q 403 2428 403 3163 
Q 403 3881 828 4315 
Q 1253 4750 1959 4750 
Q 2769 4750 3195 4129 
Q 3622 3509 3622 2328 
Q 3622 1225 3098 567 
Q 2575 -91 1691 -91 
Q 1453 -91 1209 -44 
Q 966 3 703 97 
z
M 1959 2075 
Q 2384 2075 2632 2365 
Q 2881 2656 2881 3163 
Q 2881 3666 2632 3958 
Q 2384 4250 1959 4250 
Q 1534 4250 1286 3958 
Q 1038 3666 1038 3163 
Q 1038 2656 1286 2365 
Q 1534 2075 1959 2075 
z
" transform="scale(0.015625)"/>
     </defs>
     <use xlink:href="#DejaVuSans-6e"/>
     <use xlink:href="#DejaVuSans-20" x="63.378906"/>
     <use xlink:href="#DejaVuSans-3d" x="95.166016"/>
     <use xlink:href="#DejaVuSans-20" x="178.955078"/>
     <use xlink:href="#DejaVuSans-31" x="210.742188"/>
     <use xlink:href="#DejaVuSans-2c" x="274.365234"/>
     <use xlink:href="#DejaVuSans-35" x="306.152344"/>
     <use xlink:href="#DejaVuSans-30" x="369.775391"/>
     <use xlink:href="#DejaVuSans-34" x="433.398438"/>
     <use xlink:href="#DejaVuSans-2c" x="497.021484"/>
     <use xlink:href="#DejaVuSans-39" x="528.808594"/>
     <use xlink:href="#DejaVuSans-31" x="592.431641"/>
     <use xlink:href="#DejaVuSans-34" x="656.054688"/>
    </g>
   </g>
   <g id="text_15">
    <!-- Merge times for PRs with no changes during review -->
    <g transform="translate(66.96375 28.56)scale(0.12 -0.12)">
     <defs>
      <path id="DejaVuSans-4d" d="M 628 4666 
L 1569 4666 
L 2759 1491 
L 3956 4666 
L 4897 4666 
L 4897 0 
L 4281 0 
L 4281 4097 
L 3078 897 
L 2444 897 
L 1241 4097 
L 1241 0 
L 628 0 
L 628 4666 
z
" transform="scale(0.015625)"/>
      <path id="DejaVuSans-66" d="M 2375 4863 
L 2375 4384 
L 1825 4384 
Q 1516 4384 1395 4259 
Q 1275 4134 1275 3809 
L 1275 3500 
L 2222 3500 
L 2222 3053 
L 1275 3053 
L 1275 0 
L 697 0 
L 697 3053 
L 147 3053 
L 147 3500 
L 697 3500 
L 697 3744 
Q 697 4328 969 4595 
Q 1241 4863 1831 4863 
L 2375 4863 
z
" transform="scale(0.015625)"/>
      <path id="DejaVuSans-52" d="M 2841 2188 
Q 3044 2119 3236 1894 
Q 3428 1669 3622 1275 
L 4263 0 
L 3584 0 
L 2988 1197 
Q 2756 1666 2539 1819 
Q 2322 1972 1947 1972 
L 1259 1972 
L 1259 0 
L 628 0 
L 628 4666 
L 2053 4666 
Q 2853 4666 3247 4331 
Q 3641 3997 3641 3322 
Q 3641 2881 3436 2590 
Q 3231 2300 2841 2188 
z
M 1259 4147 
L 1259 2491 
L 2053 2491 
Q 2509 2491 2742 2702 
Q 2975 2913 2975 3322 
Q 2975 3731 2742 3939 
Q 2509 4147 2053 4147 
L 1259 4147 
z
" transform="scale(0.015625)"/>
      <path id="DejaVuSans-77" d="M 269 3500 
L 844 3500 
L 1563 769 
L 2278 3500 
L 2956 3500 
L 3675 769 
L 4391 3500 
L 4966 3500 
L 4050 0 
L 3372 0 
L 2619 2869 
L 1863 0 
L 1184 0 
L 269 3500 
z
" transform="scale(0.015625)"/>
      <path id="DejaVuSans-68" d="M 3513 2113 
L 3513 0 
L 2938 0 
L 2938 2094 
Q 2938 2591 2744 2837 
Q 2550 3084 2163 3084 
Q 1697 3084 1428 2787 
Q 1159 2491 1159 1978 
L 1159 0 
L 581 0 
L 581 4863 
L 1159 4863 
L 1159 2956 
Q 1366 3272 1645 3428 
Q 1925 3584 2291 3584 
Q 2894 3584 3203 3211 
Q 3513 2838 3513 2113 
z
" transform="scale(0.015625)"/>
      <path id="DejaVuSans-63" d="M 3122 3366 
L 3122 2828 
Q 2878 2963 2633 3030 
Q 2388 3097 2138 3097 
Q 1578 3097 1268 2742 
Q 959 2388 959 1747 
Q 959 1106 1268 751 
Q 1578 397 2138 397 
Q 2388 397 2633 464 
Q 2878 531 3122 666 
L 3122 134 
Q 2881 22 2623 -34 
Q 2366 -91 2075 -91 
Q 1284 -91 818 406 
Q 353 903 353 1747 
Q 353 2603 823 3093 
Q 1294 3584 2113 3584 
Q 2378 3584 2631 3529 
Q 2884 3475 3122 3366 
z
" transform="scale(0.015625)"/>
      <path id="DejaVuSans-64" d="M 2906 2969 
L 2906 4863 
L 3481 4863 
L 3481 0 
L 2906 0 
L 2906 525 
Q 2725 213 2448 61 
Q 2172 -91 1784 -91 
Q 1150 -91 751 415 
Q 353 922 353 1747 
Q 353 2572 751 3078 
Q 1150 3584 1784 3584 
Q 2172 3584 2448 3432 
Q 2725 3281 2906 2969 
z
M 947 1747 
Q 947 1113 1208 752 
Q 1469 391 1925 391 
Q 2381 391 2643 752 
Q 2906 1113 2906 1747 
Q 2906 2381 2643 2742 
Q 2381 3103 1925 3103 
Q 1469 3103 1208 2742 
Q 947 2381 947 1747 
z
" transform="scale(0.015625)"/>
      <path id="DejaVuSans-76" d="M 191 3500 
L 800 3500 
L 1894 563 
L 2988 3500 
L 3597 3500 
L 2284 0 
L 1503 0 
L 191 3500 
z
" transform="scale(0.015625)"/>
     </defs>
     <use xlink:href="#DejaVuSans-4d"/>
     <use xlink:href="#DejaVuSans-65" x="86.279297"/>
     <use xlink:href="#DejaVuSans-72" x="147.802734"/>
     <use xlink:href="#DejaVuSans-67" x="187.166016"/>
     <use xlink:href="#DejaVuSans-65" x="250.642578"/>
     <use xlink:href="#DejaVuSans-20" x="312.166016"/>
     <use xlink:href="#DejaVuSans-74" x="343.953125"/>
     <use xlink:href="#DejaVuSans-69" x="383.162109"/>
     <use xlink:href="#DejaVuSans-6d" x="410.945312"/>
     <use xlink:href="#DejaVuSans-65" x="508.357422"/>
     <use xlink:href="#DejaVuSans-73" x="569.880859"/>
     <use xlink:href="#DejaVuSans-20" x="621.980469"/>
     <use xlink:href="#DejaVuSans-66" x="653.767578"/>
     <use xlink:href="#DejaVuSans-6f" x="688.972656"/>
     <use xlink:href="#DejaVuSans-72" x="750.154297"/>
     <use xlink:href="#DejaVuSans-20" x="791.267578"/>
     <use xlink:href="#DejaVuSans-50" x="823.054688"/>
     <use xlink:href="#DejaVuSans-52" x="883.357422"/>
     <use xlink:href="#DejaVuSans-73" x="952.839844"/>
     <use xlink:href="#DejaVuSans-20" x="1004.939453"/>
     <use xlink:href="#DejaVuSans-77" x="1036.726562"/>
     <use xlink:href="#DejaVuSans-69" x="1118.513672"/>
     <use xlink:href="#DejaVuSans-74" x="1146.296875"/>
     <use xlink:href="#DejaVuSans-68" x="1185.505859"/>
     <use xlink:href="#DejaVuSans-20" x="1248.884766"/>
     <use xlink:href="#DejaVuSans-6e" x="1280.671875"/>
     <use xlink:href="#DejaVuSans-6f" x="1344.050781"/>
     <use xlink:href="#DejaVuSans-20" x="1405.232422"/>
     <use xlink:href="#DejaVuSans-63" x="1437.019531"/>
     <use xlink:href="#DejaVuSans-68" x="1492"/>
     <use xlink:href="#DejaVuSans-61" x="1555.378906"/>
     <use xlink:href="#DejaVuSans-6e" x="1616.658203"/>
     <use xlink:href="#DejaVuSans-67" x="1680.037109"/>
     <use xlink:href="#DejaVuSans-65" x="1743.513672"/>
     <use xlink:href="#DejaVuSans-73" x="1805.037109"/>
     <use xlink:href="#DejaVuSans-20" x="1857.136719"/>
     <use xlink:href="#DejaVuSans-64" x="1888.923828"/>
     <use xlink:href="#DejaVuSans-75" x="1952.400391"/>
     <use xlink:href="#DejaVuSans-72" x="2015.779297"/>
     <use xlink:href="#DejaVuSans-69" x="2056.892578"/>
     <use xlink:href="#DejaVuSans-6e" x="2084.675781"/>
     <use xlink:href="#DejaVuSans-67" x="2148.054688"/>
     <use xlink:href="#DejaVuSans-20" x="2211.53125"/>
     <use xlink:href="#DejaVuSans-72" x="2243.318359"/>
     <use xlink:href="#DejaVuSans-65" x="2282.181641"/>
     <use xlink:href="#DejaVuSans-76" x="2343.705078"/>
     <use xlink:href="#DejaVuSans-69" x="2402.884766"/>
     <use xlink:href="#DejaVuSans-65" x="2430.667969"/>
     <use xlink:href="#DejaVuSans-77" x="2492.191406"/>
    </g>
   </g>
  </g>
 </g>
 <defs>
  <clipPath id="pde692e8daf">
   <rect x="54" y="34.56" width="334.8" height="217.44"/>
  </clipPath>
 </defs>
</svg>
